<?xml version="1.0" encoding="UTF-8"?>
<svg id="Capa_2" data-name="Capa 2" xmlns="http://www.w3.org/2000/svg" viewBox="0 0 514.83 468.18">
  <defs>
    <style>
      .cls-1 {
        fill: none;
        stroke: #0766aa;
        stroke-miterlimit: 2.61;
        stroke-width: 1px;
      }

      .cls-2 {
        fill: red;
      }

      .cls-2, .cls-3, .cls-4, .cls-5, .cls-6, .cls-7, .cls-8, .cls-9, .cls-10 {
        stroke-width: 0px;
      }

      .cls-3 {
        fill: #ffb304;
      }

      .cls-3, .cls-4, .cls-6, .cls-7, .cls-8, .cls-9, .cls-10 {
        fill-rule: evenodd;
      }

      .cls-4 {
        fill: #002b54;
      }

      .cls-5, .cls-7 {
        fill: #fff;
      }

      .cls-6 {
        fill: #0d67a3;
      }

      .cls-8 {
        fill: #023467;
      }

      .cls-9 {
        fill: #fefefe;
      }

      .cls-10 {
        fill: #8f601c;
      }
    </style>
  </defs>
  <g id="Capa_1-2" data-name="Capa 1">
    <g>
      <path class="cls-8" d="m257.6,467.48c108.56-105.97,157.14-212.17,156.75-363.64-20.32,12.07-126.69-1.19-159.34-30.18-32.65,29-133.84,42.25-154.16,30.18-.39,151.47,48.19,257.67,156.75,363.64Z"/>
      <path class="cls-1" d="m257.6,467.48c108.56-105.97,157.14-212.17,156.75-363.64-20.32,12.07-126.69-1.19-159.34-30.18-32.65,29-133.84,42.25-154.16,30.18-.39,151.47,48.19,257.67,156.75,363.64Z"/>
      <path class="cls-10" d="m281.22,24.99c-8.33-8.33-16.66-16.66-24.99-24.99-8.33,8.33-16.66,16.66-24.99,24.99,8.07,4.48,13.44,10.39,11.23,18.41-1.42,5.15-4.13,8.38-8.69,10.93-20.72,11.62-36.69-15.64-18.2-29.01-8.44-6.49-18.42-13.96-26.85-20.45-8.22,8.87-16.44,18.84-24.66,27.71,22.56,5.82,19.48,30.96-3.33,33.09-20.53,1.92-24.34-19.8-11.11-29.48-10.27-5.54-21.19-11.28-32.21-16.55,7.79,21.74,12.9,43.86,18.09,66.04,35.79-9.12,75.85-15,120.73-17.2,44.88,2.2,84.93,8.08,120.73,17.2,5.19-22.18,10.3-44.3,18.09-66.04-11.02,5.27-21.94,11.01-32.21,16.55,13.22,9.68,9.42,31.4-11.11,29.48-22.81-2.13-25.88-27.27-3.33-33.09-8.22-8.87-16.44-18.84-24.66-27.71-8.44,6.49-18.42,13.96-26.85,20.45,18.48,13.37,2.52,40.63-18.2,29.01-4.56-2.55-7.27-5.78-8.69-10.93-2.21-8.03,3.16-13.93,11.23-18.41"/>
      <path class="cls-7" d="m273.48,125.09c-4.34.27-8.71,1.16-12.99,2.75-3.33,1.24-6.43,2.82-9.27,4.7-5.63,3.72-10.25,8.58-13.65,14.15-.3.5-.6,1.01-.89,1.52-.97,1.73-1.83,3.53-2.56,5.38-1.63,4.08-2.67,8.41-3.06,12.84-.23,2.62-.23,5.27,0,7.93.21,2.42.62,4.86,1.25,7.27.39,1.52.86,3.02,1.41,4.53,1.57,4.23,3.71,8.09,6.29,11.53.77,1.02,1.57,2,2.42,2.95,4.29,4.8,9.54,8.59,15.31,11.17l2.78,1.14c5.89,2.18,12.25,3.15,18.68,2.73,1.26-.08,2.53-.22,3.79-.41,3.03-.46,6.05-1.23,9.03-2.34,2.73-1.01,5.31-2.26,7.71-3.72,2.13-1.28,4.13-2.73,5.99-4.31,2.03-1.73,3.88-3.63,5.55-5.66,2.81-3.42,5.11-7.24,6.81-11.3.77-1.83,1.42-3.71,1.94-5.63.16-.57.3-1.14.43-1.71,1.47-6.33,1.59-13.03.17-19.66-.45-2.12-1.06-4.23-1.83-6.31-2.06-5.55-5.08-10.45-8.82-14.6-4.28-4.74-9.48-8.49-15.22-11.05l-2.73-1.12c-5.85-2.17-12.17-3.15-18.55-2.76m-4.56,10.61c1.37,1.39,2.69,3.12,3.93,5.02.19.29.38.59.56.89,1.16,1.88,2.24,3.9,3.21,5.93-3.06,3.22-6.08,7.86-8.05,11.83-.27.54-.52,1.07-.75,1.58-.12.27-.24.53-.34.79-2.93.21-5.84.59-8.73,1.12-.45.08-.89.17-1.33.26-2.42.48-4.82,1.06-7.22,1.73-1.92-2.01-3.45-4.21-4.72-6.61-.74-1.39-1.39-2.85-1.98-4.38.24-.85.51-1.69.82-2.52.2-.54.42-1.08.65-1.62.61-1.4,1.32-2.76,2.14-4.09,1.68-2.73,3.8-5.28,6.32-7.54,2.12-.87,4.27-1.56,6.37-2.03,3.26-.73,6.39-.92,9.12-.35Zm-1.67,26.76c1.9,2.37,3.84,4.73,5.83,7.07,1.81,2.12,3.65,4.23,5.53,6.32-.53,2.88-1.25,5.78-2.1,8.69l-.12.42c-.69,2.33-1.47,4.66-2.29,6.99-.17.48-.34.95-.51,1.43-2.43.97-4.86,1.68-7.29,2.15-3.14.61-6.27.81-9.43.67-2.45-2.06-4.65-4.32-6.61-6.76-.18-.23-.36-.45-.54-.69-1.62-2.09-3.06-4.31-4.36-6.66.02-.63.05-1.24.09-1.85.2-2.65.66-5.12,1.36-7.37.85-2.76,2.03-5.21,3.45-7.32,2.76-.77,5.55-1.43,8.34-1.95l.26-.05c2.78-.51,5.57-.88,8.38-1.09Zm-33.02-1.04c-.07-.14-.13-.29-.19-.43.5-2.26,1.18-4.46,2.04-6.6.27-.69.57-1.38.88-2.05.52-1.13,1.09-2.24,1.7-3.32.29-.51.59-1.02.9-1.52,3.19-5.13,7.47-9.62,12.66-13.08-.56,1.16-.28,2.42.11,3.71-2.31,2.16-4.26,4.57-5.83,7.13-.84,1.36-1.57,2.76-2.19,4.19-.23.54-.45,1.08-.65,1.62-.32.87-.61,1.75-.85,2.63-1.11.68-2.14,1.4-3.09,2.18-2.29,1.88-4.05,4.05-4.99,6.5-.18-.31-.34-.63-.49-.96Zm.55,21.22c-.73-2.45-1.23-4.92-1.51-7.38-.31-2.68-.36-5.36-.16-8,.13-1.73.36-3.44.68-5.12.2.38.41.76.63,1.11-.03.09-.05.18-.08.27-.33,1.23-.55,2.58-.65,3.99-.19,2.66.04,5.53.68,8.21.33,1.38.78,2.72,1.34,3.94-.4.91-.69,1.92-.89,3.01l-.02.08-.03-.09Zm12.74,20.07c-1.18-1.04-2.31-2.16-3.37-3.34-3.58-3.96-6.48-8.65-8.45-13.96-.14-.38-.28-.75-.4-1.13.04-.4.09-.79.16-1.18h0s.03-.18.03-.18c.17-.94.4-1.82.71-2.62,2.59,1.35,5.45,1.84,8.38,1.81,1.16,2.13,2.44,4.17,3.86,6.1.41.56.83,1.11,1.26,1.65,2.07,2.57,4.39,4.95,7,7.1-.03,2.69.17,5.34.88,7.89.21.77.47,1.53.79,2.28l.07.18c-1.21.35-2.53.44-3.86.33-.11-.01-.21-.02-.31-.04-2.39-1.41-4.65-3.05-6.75-4.91Zm26.59,10.88c-5.54-.28-10.94-1.62-15.9-3.91-.87-.4-1.72-.82-2.55-1.28,1.1,0,2.18-.15,3.19-.47,1.99,1.95,7.06,3.65,11.62,4.16,1.74.19,3.4.21,4.8,0,.11-.02.22-.04.33-.06.06.09.12.18.19.27.39.52.82.96,1.31,1.32-1,.02-1.99,0-2.98-.04Zm29.39-9.6c-1.93,1.57-4.01,2.98-6.24,4.21-1.89,1.05-3.89,1.97-5.98,2.74-4.1,1.52-8.28,2.37-12.44,2.63l-.41.02-.05-.02c-.36-.16-.69-.36-1-.6-.39-.31-.74-.68-1.06-1.11,4.03-1.72,6.81-4.55,8.73-8.16.37.01.76,0,1.16-.03,2.04-.14,4.46-.75,6.94-1.7.89-.34,1.79-.72,2.68-1.13,2.33-1.09,4.62-2.43,6.59-3.89,1.56.99,3.18,1.77,4.99,2.01-.02.57-.11,1.14-.27,1.7-1.14,1.17-2.36,2.28-3.64,3.32Zm5.71-5.59c-.39.46-.78.9-1.18,1.34.04-.32.06-.65.07-.98.25-.16.5-.33.74-.51.5-.36,1-.77,1.48-1.21-.36.46-.73.92-1.11,1.37Zm-2.06-14.93c-.53,4.73-2.18,9.4-4.15,12.14l-.21.17c-2.26,1.8-5.04,3.45-7.87,4.71-.68.3-1.36.59-2.03.84-2.97,1.13-5.84,1.78-7.99,1.67-3.93-2.37-7.73-5.38-10.64-9.43.16-.44.32-.89.48-1.34.82-2.34,1.6-4.67,2.29-6.99l.15-.49c.83-2.84,1.54-5.68,2.06-8.5,1.92-.54,3.85-1.16,5.75-1.84,2.67-.96,5.31-2.04,7.88-3.2.72-.33,1.44-.67,2.15-1.01l.47-.23c.71.41,1.42.83,2.11,1.29,1.5.97,2.97,2.06,4.38,3.28.29.25.57.5.86.76,1.55,1.4,3.04,2.96,4.48,4.71.01,1.14-.05,2.31-.18,3.48Zm9.65-28.11c.56,1.52,1.04,3.06,1.42,4.6,1.67,6.67,1.67,13.44.24,19.83l-.09.39c0-.14,0-.28.01-.42.03-2.28-.37-4.32-1.24-6.11.72-3.21.93-6.45.63-9.7-.14-1.49-.39-2.98-.74-4.47-.43-1.82-1.02-3.64-1.77-5.47.15-.37.31-.9.34-1.53.43.94.82,1.9,1.19,2.88Zm-2.6-2.06c.87,1.95,1.54,3.9,2.03,5.84.41,1.63.69,3.25.84,4.87.3,3.18.09,6.35-.62,9.5-1.22,1.48-2.6,2.76-4.05,3.81-.59.42-1.18.81-1.78,1.16-.87.5-1.75.91-2.63,1.23-1.07-1.32-2.19-2.54-3.33-3.67-.72-.71-1.46-1.39-2.2-2.03-.63-.54-1.26-1.04-1.9-1.54-1.44-1.1-2.93-2.08-4.45-2.95.46-6.16-.02-11.86-1.75-17.78l1.42-.96c2.88-1.95,5.73-3.9,8.5-5.91,2.7.69,6.82,3.82,9.92,8.44Zm-15.16-18.57c.46.42.89.88,1.3,1.35,2.11,2.48,3.52,5.58,3.63,8.14-2.91,2.12-5.92,4.17-8.97,6.23l-1.16.78c-5.09-2.59-10.94-3.97-16.57-3.95-.84-1.77-1.77-3.54-2.77-5.21-.35-.58-.71-1.16-1.07-1.72-1.22-1.88-2.52-3.58-3.86-4.98.82-2.07,4.18-4.85,7.72-6.31,1.92-.2,3.81-.22,5.69-.08,1.56.13,3.11.37,4.66.75,3.72.9,7.46,2.54,11.41,5Zm-4.74-3.64c1.23.56,2.43,1.18,3.6,1.86-.14,0-.28.02-.41.04-3.31-1.87-6.51-3.17-9.68-3.94-2.26-.55-4.5-.83-6.78-.86-1.06-.01-2.12.02-3.19.12-.95-.52-1.98-.89-3.1-1.14,1.3-.05,2.59-.03,3.88.04,5.46.3,10.78,1.64,15.68,3.89Z"/>
      <polygon class="cls-6" points="205.01 326.68 208.42 330.09 211.83 333.5 208.42 336.9 205.01 340.31 201.61 336.9 198.2 333.5 201.61 330.09 205.01 326.68"/>
      <polygon class="cls-6" points="214.91 317.25 218.36 320.43 221.81 323.6 218.36 326.77 214.91 329.94 211.47 326.77 208.02 323.6 211.47 320.43 214.91 317.25"/>
      <polygon class="cls-6" points="225.95 307.9 229.25 311.21 232.56 314.51 229.25 317.82 225.95 321.12 222.64 317.82 219.34 314.51 222.64 311.21 225.95 307.9"/>
      <polygon class="cls-6" points="236.82 318.16 240.09 321.12 243.35 324.08 240.09 327.05 236.82 330.01 233.55 327.05 230.29 324.08 233.55 321.12 236.82 318.16"/>
      <polygon class="cls-6" points="245.62 307.54 248.7 310.62 251.79 313.7 248.7 316.78 245.62 319.86 242.54 316.78 239.46 313.7 242.54 310.62 245.62 307.54"/>
      <polygon class="cls-6" points="194.66 317.8 197.7 320.84 200.74 323.89 197.7 326.93 194.66 329.97 191.61 326.93 188.57 323.89 191.61 320.84 194.66 317.8"/>
      <polygon class="cls-6" points="203.91 308.74 206.95 311.44 209.99 314.15 206.95 316.85 203.91 319.56 200.87 316.85 197.82 314.15 200.87 311.44 203.91 308.74"/>
      <polygon class="cls-6" points="215.27 298.64 218.31 301.41 221.35 304.17 218.31 306.93 215.27 309.7 212.22 306.93 209.18 304.17 212.22 301.41 215.27 298.64"/>
      <polygon class="cls-6" points="226.14 288.5 229.18 291.02 232.22 293.54 229.18 296.06 226.14 298.58 223.1 296.06 220.05 293.54 223.1 291.02 226.14 288.5"/>
      <polygon class="cls-6" points="236.68 298.15 239.72 300.88 242.77 303.6 239.72 306.33 236.68 309.05 233.64 306.33 230.6 303.6 233.64 300.88 236.68 298.15"/>
      <polygon class="cls-6" points="246.82 288.02 249.87 290.45 252.91 292.89 249.87 295.33 246.82 297.76 243.78 295.33 240.74 292.89 243.78 290.45 246.82 288.02"/>
      <polygon class="cls-6" points="236.36 277.22 239.4 279.99 242.44 282.75 239.4 285.51 236.36 288.28 233.32 285.51 230.27 282.75 233.32 279.99 236.36 277.22"/>
      <polygon class="cls-6" points="216.07 276.66 219.12 279.46 222.16 282.26 219.12 285.07 216.07 287.87 213.03 285.07 209.99 282.26 213.03 279.46 216.07 276.66"/>
      <polygon class="cls-6" points="204.23 287.77 207.27 290.45 210.32 293.14 207.27 295.82 204.23 298.5 201.19 295.82 198.14 293.14 201.19 290.45 204.23 287.77"/>
      <polygon class="cls-6" points="193.68 299.13 196.72 301.81 199.77 304.49 196.72 307.18 193.68 309.86 190.64 307.18 187.6 304.49 190.64 301.81 193.68 299.13"/>
      <polygon class="cls-6" points="184.11 308.14 187.15 311.19 190.19 314.23 187.15 317.27 184.11 320.32 181.06 317.27 178.02 314.23 181.06 311.19 184.11 308.14"/>
      <polygon class="cls-6" points="176.3 318.69 179.91 321.74 183.52 324.78 179.91 327.82 176.3 330.86 172.68 327.82 169.07 324.78 172.68 321.74 176.3 318.69"/>
      <path class="cls-7" d="m291.39,213.17c6.75-3.52,13.72-6.84,18.7-12.56-16.33,24.48-34.22,46.92-55.12,65.42-10.1,8.93-19.67,9.68-29.85,4.56-12.95-6.52-23.76-27.54-29.27-40.25-10.48-24.91-18.19-44.83-24.18-71.23,10.11,20.8,17.93,40.71,27.08,60.08,9.31,19.73,18.89,54.76,44.42,44.83,13.36-5.2,39.6-38.65,48.23-50.84"/>
      <path class="cls-7" d="m279.41,215.65c-2.91-.79-5.81-1.58-8.72-2.37-8.08,15.87-18.81,28.79-30.57,40.55,15.31-9.56,28.52-22.12,39.29-38.18"/>
      <path class="cls-7" d="m241.23,196.89c1.25,1.95,3.69,4.41,4.95,6.36-5.67,12.58-11.61,19.84-20.28,28.79,5.74-11.44,9.25-19.65,15.33-35.16"/>
      <path class="cls-7" d="m231.49,163.22c-3.04,11.99-6.16,23.97-9.58,35.88-5.33,18.57-6.62,31.92-22.8,20.91-.01,0,3.63,8.61,3.61,8.59.02,0,.14.04.16.05,11.15,3.76,15.65-1.69,19.56-11.28,4.74-11.63,7.9-25.19,10.75-37.92-.95-6.39-.75-9.84-1.7-16.23"/>
      <polygon class="cls-6" points="301.72 326.68 298.31 330.09 294.91 333.5 298.31 336.9 301.72 340.31 305.13 336.9 308.54 333.5 305.13 330.09 301.72 326.68"/>
      <polygon class="cls-6" points="291.82 317.25 288.38 320.43 284.93 323.6 288.38 326.77 291.82 329.94 295.27 326.77 298.72 323.6 295.27 320.43 291.82 317.25"/>
      <polygon class="cls-6" points="280.79 307.9 277.48 311.21 274.18 314.51 277.48 317.82 280.79 321.12 284.09 317.82 287.4 314.51 284.09 311.21 280.79 307.9"/>
      <polygon class="cls-6" points="269.92 318.16 266.65 321.12 263.38 324.08 266.65 327.05 269.92 330.01 273.18 327.05 276.45 324.08 273.18 321.12 269.92 318.16"/>
      <polygon class="cls-6" points="261.17 307.54 258.09 310.62 255.01 313.7 258.09 316.78 261.17 319.86 264.26 316.78 267.34 313.7 264.26 310.62 261.17 307.54"/>
      <polygon class="cls-6" points="312.08 317.8 309.04 320.84 305.99 323.89 309.04 326.93 312.08 329.97 315.12 326.93 318.16 323.89 315.12 320.84 312.08 317.8"/>
      <polygon class="cls-6" points="302.83 308.74 299.78 311.44 296.74 314.15 299.78 316.85 302.83 319.56 305.87 316.85 308.91 314.15 305.87 311.44 302.83 308.74"/>
      <polygon class="cls-6" points="291.47 298.64 288.43 301.41 285.38 304.17 288.43 306.93 291.47 309.7 294.51 306.93 297.56 304.17 294.51 301.41 291.47 298.64"/>
      <polygon class="cls-6" points="280.6 288.5 277.55 291.02 274.51 293.54 277.55 296.06 280.6 298.58 283.64 296.06 286.68 293.54 283.64 291.02 280.6 288.5"/>
      <polygon class="cls-6" points="270.05 298.15 267.01 300.88 263.97 303.6 267.01 306.33 270.05 309.05 273.1 306.33 276.14 303.6 273.1 300.88 270.05 298.15"/>
      <polygon class="cls-6" points="259.91 288.02 256.87 290.45 253.83 292.89 256.87 295.33 259.91 297.76 262.96 295.33 266 292.89 262.96 290.45 259.91 288.02"/>
      <polygon class="cls-6" points="270.38 277.22 267.34 279.99 264.29 282.75 267.34 285.51 270.38 288.28 273.42 285.51 276.46 282.75 273.42 279.99 270.38 277.22"/>
      <polygon class="cls-6" points="290.66 276.66 287.62 279.46 284.58 282.26 287.62 285.07 290.66 287.87 293.71 285.07 296.75 282.26 293.71 279.46 290.66 276.66"/>
      <polygon class="cls-6" points="302.51 287.77 299.46 290.45 296.42 293.14 299.46 295.82 302.51 298.5 305.55 295.82 308.59 293.14 305.55 290.45 302.51 287.77"/>
      <polygon class="cls-6" points="313.05 299.13 310.01 301.81 306.97 304.49 310.01 307.18 313.05 309.86 316.1 307.18 319.14 304.49 316.1 301.81 313.05 299.13"/>
      <polygon class="cls-6" points="322.63 308.14 319.59 311.19 316.54 314.23 319.59 317.27 322.63 320.32 325.67 317.27 328.72 314.23 325.67 311.19 322.63 308.14"/>
      <polygon class="cls-6" points="331.55 318.69 327.94 321.74 324.32 324.78 327.94 327.82 331.55 330.86 335.17 327.82 338.78 324.78 335.17 321.74 331.55 318.69"/>
      <path class="cls-7" d="m260.89,212.3c-.03.08-5.89-2.19-5.92-2.12-12.53,28.58-29.76,48.25-54.46,20.25,2,4.38,3.31,5.96,5.32,10.34,24.79,24.53,42.96-3.95,55.07-28.48"/>
      <polygon class="cls-6" points="252.96 317.96 249.84 321.08 246.71 324.21 249.84 327.33 252.96 330.45 256.08 327.33 259.2 324.21 256.08 321.08 252.96 317.96"/>
      <polygon class="cls-6" points="252.96 295.91 249.84 299.03 246.71 302.16 249.84 305.28 252.96 308.4 256.08 305.28 259.2 302.16 256.08 299.03 252.96 295.91"/>
      <path class="cls-3" d="m330.29,360.83c-4.2-1.09-8.39-2.17-12.59-3.26,23.34-27.54,41.23-58.27,56.88-89.05-5.78,30.47-20.95,63.11-44.29,92.32"/>
      <polygon class="cls-3" points="226.08 417.92 257.6 449.69 292.42 417.92 273.92 417.92 257.66 431.31 242.58 417.92 235.69 417.92 226.08 417.92"/>
      <path class="cls-3" d="m178.37,357.54c4.19-1.09,8.79,1.11,12.99.02-23.09-25.47-40.79-63.54-45.99-89.05-1.22,22.44,10.14,63.12,33,89.04"/>
      <polygon class="cls-6" points="194.39 338.04 197.79 341.08 201.2 344.12 197.79 347.17 194.39 350.21 190.99 347.17 187.58 344.12 190.99 341.08 194.39 338.04"/>
      <polygon class="cls-6" points="214.84 337.98 218.69 341.22 222.54 344.45 218.69 347.68 214.84 350.91 210.99 347.68 207.14 344.45 210.99 341.22 214.84 337.98"/>
      <polygon class="cls-6" points="226.19 328.06 229.52 331.38 232.85 334.71 229.52 338.04 226.19 341.37 222.87 338.04 219.54 334.71 222.87 331.38 226.19 328.06"/>
      <polygon class="cls-6" points="237.55 339.4 240.72 342.58 243.89 345.75 240.72 348.92 237.55 352.09 234.38 348.92 231.21 345.75 234.38 342.58 237.55 339.4"/>
      <polygon class="cls-6" points="244.95 328.06 248.08 331.19 251.2 334.31 248.08 337.43 244.95 340.55 241.83 337.43 238.71 334.31 241.83 331.19 244.95 328.06"/>
      <polygon class="cls-6" points="185.08 328.75 188.12 331.8 191.17 334.84 188.12 337.88 185.08 340.93 182.04 337.88 178.99 334.84 182.04 331.8 185.08 328.75"/>
      <polygon class="cls-6" points="312.35 338.04 308.94 341.08 305.54 344.12 308.94 347.17 312.35 350.21 315.75 347.17 319.15 344.12 315.75 341.08 312.35 338.04"/>
      <polygon class="cls-6" points="291.9 337.98 288.05 341.22 284.2 344.45 288.05 347.68 291.9 350.91 295.75 347.68 299.6 344.45 295.75 341.22 291.9 337.98"/>
      <polygon class="cls-6" points="280.54 328.06 277.21 331.38 273.89 334.71 277.21 338.04 280.54 341.37 283.87 338.04 287.2 334.71 283.87 331.38 280.54 328.06"/>
      <polygon class="cls-6" points="269.18 339.4 266.01 342.58 262.84 345.75 266.01 348.92 269.18 352.09 272.35 348.92 275.52 345.75 272.35 342.58 269.18 339.4"/>
      <polygon class="cls-6" points="261.78 328.06 258.65 331.19 255.53 334.31 258.65 337.43 261.78 340.55 264.9 337.43 268.02 334.31 264.9 331.19 261.78 328.06"/>
      <polygon class="cls-6" points="321.66 328.75 318.61 331.8 315.57 334.84 318.61 337.88 321.66 340.93 324.7 337.88 327.74 334.84 324.7 331.8 321.66 328.75"/>
      <polygon class="cls-6" points="252.96 338.51 249.84 341.63 246.71 344.76 249.84 347.88 252.96 351 256.08 347.88 259.2 344.76 256.08 341.63 252.96 338.51"/>
      <polygon class="cls-6" points="225.54 348.5 228.71 351.67 231.87 354.83 228.71 358 225.54 361.16 222.38 358 219.21 354.83 222.38 351.67 225.54 348.5"/>
      <polygon class="cls-6" points="205.5 350.05 208.91 353.46 212.32 356.86 208.91 360.27 205.5 363.68 202.1 360.27 198.69 356.86 202.1 353.46 205.5 350.05"/>
      <polygon class="cls-6" points="245.99 348.18 248.95 351.14 251.91 354.1 248.95 357.07 245.99 360.03 243.03 357.07 240.07 354.1 243.03 351.14 245.99 348.18"/>
      <polygon class="cls-6" points="281.19 348.5 278.03 351.67 274.86 354.83 278.03 358 281.19 361.16 284.36 358 287.52 354.83 284.36 351.67 281.19 348.5"/>
      <polygon class="cls-6" points="301.23 350.05 297.83 353.46 294.42 356.86 297.83 360.27 301.23 363.68 304.64 360.27 308.05 356.86 304.64 353.46 301.23 350.05"/>
      <polygon class="cls-6" points="260.87 348.18 257.91 351.14 254.94 354.1 257.91 357.07 260.87 360.03 263.83 357.07 266.79 354.1 263.83 351.14 260.87 348.18"/>
      <rect class="cls-5" x="52.85" y="356.09" width="413.1" height="61.83"/>
      <path class="cls-4" d="m118.87,170.6c-.11.06-3.19-.16-4.74.69-1.64.89-3.35,3.76-5.35,5.05-3.87,2.49-5.57,3.07-8.66,7.38l-1.68,2.82c-2.11,2.62-7.75,2.23-11.31,9.91-1.96,4.24.48,4.49-.15,6.59-.76,2.56-2.02,10.84-.73,13.23.67,1.23,1.9,1.82,3.13,1.8.47,1.72.98,3.51,2.73,4.33.78.36.42.03,1.03.65.24.24.69.82.89,1.12-.61,1.16-.95,3.14-1.24,4.52l-.45,4.76c-.15,6.45.91,2.44-2.07,9.34l-2.59,6.57c-1.77,5.66-3.77,11.12-8.8,14.85-1.64,1.22-3.69,2.03-5.55,3.24-7.14,4.67-13.25,10.09-17.42,17.18-2.42,4.11-3.4,4.59-7.76,6.95-2.05,1.11-7.08,2.64-9.06,1.69-2.57-1.23-5.26-3.27-7.1-6.67-3.33-6.15-3.44-14.83-2.41-20.28.15-.79.31-1.28.46-2.13.73-4.08,3.12-7.24-.29-13.54-2.11-3.9-5.33-6.63-9.68-6.79-7.43-.28-10,7.76-11.69,9.7-2.62,2.98-6.7,4.43-7.5,11.39l-.88,8.13c.39,3,1.94.95,1.15,5.23-.2,1.11-2.97,6.55,2.18,7.18,2.56.32,6.14-3.54,7.96-5.23.78-.72,1.11-.55,2.13-1.1,1.78-.96,2.69-3.44,3.98-4.58.13,13.57,4.39,26.2,18,31.12l3.2.99c2.74.48,5.57.55,8.51.16,1.89-.25,5.66-.99,7.52-1.81.16.65.05,1.57,0,2.27-.08.89-.11,1.6-.14,2.4-.37,9.17-2,10.99-7.8,16.54-1.15,1.1-2.97,2.44-3.68,3.62-2.62,4.36,4.21,13.64,6.12,17.19,8.48,15.77,12.86,10.75,15.41,11.02,2.28.24,3.11,1.15,5.93.62,2.2-.41,4.7-1.71,6.83-3.26.78-.57,3.69-4.1,4.14-4.88,1.17-2.04,1.07-4.5-.1-6.67-.67-1.23-5.08-3.92-6.18-4.47-4.18-2.07-8.61,1.71-10.4,2.68-1.08-.57-.89-.07-1.86-1.39-1.32-1.79-1.97-2.69-.2-4.29.63-.57,1.34-1.2,2.34-1.75,8.15-4.52,12.14-6.19,17.69-13.43,2.03-2.65,3.81-5.13,5.25-7.87,2.77,1.46,3.65,3.39,2.68,6.56-1.78,5.88,3.92,8.43,8.73,9.11.77.11,1.42.11,2.23.15,3.71.17,8.12.05,11.74-.72,2.79-.6,1.9-1.16,4.64-.33,1.74.53,2.36.8,4.32.74,7.05-.22,9.97-5.99,10.13-6.14,1.12-1.01,1.63-1.07,2.74-2.5.33-.42.41-.46.77-.82,6.01-5.98-2.99-11.11-8.17-11.89-3.79-.58-5.53.65-8.46,2.93-2.5,1.95-3.78,2.93-7.09,2.96.16-1.73,4.12-7.56,4.19-14.3.02-1.73-.11-3.63-.6-5.42,2.5-1.35,4.44-2.97,6.3-4.41,1.29-1,5.02-3.86,5.69-4.77.7,1.07,4.07,4.69,5.62,6.96,1.74,2.56,3.64,5.65,5.17,8.47,1.63,3,1.83,6.29,7.52,6.42,1.1.02,2.2-.15,3.34-.09,2.15.12,2.99,1.95,5.82,2.74,4.86,1.37,13.97-4.45,16.6-8.44,3.14-4.76,1.3-8.15-2.54-11.81-7.23-6.89-8.85.05-15.63-.87-2.2-.3-3.3-4.25-3.93-5.94-.43-1.15-1.56-2.87-.71-3.13.89-.28,3.91,1.75,6.34.43,1.66-.9,2.4-3.02,1.54-4.61-.87-1.61-2.3-1.7-3.6-3.17.4-.56.62-.62.97-1.28.17-.32.5-1.04.62-1.39.46-1.35.15-4.66.92-5.49.98-1.04,2.03-1.99,1.55-3.73l3.65-1.71c6.05-3.28,13.14-13.19,16.5-19.55,5.94-11.23,2.48-4.74,9.07-8.31,1.6-.87,2.74-2.4,4.13-3.31,1.74,1.26,2.07,3.19,5.76,1.19.62-.34,2.94-2.99,3.3-3.74,1.32-2.75,1.07-7.13-.16-9.83-.74-1.62-.84-1.15-.51-2.6.61-2.74-2.93-7.98-8.21-8.49-2.79-.27-6.17.33-9.34,2.05-5.07,2.74-4.81,8.47-9.62,12.51-.98.82-4.29,2.83-5.64,3.56-.02-1.77.14-2.71-.44-4.67-.33-1.14-2.27-4.67-2.27-5.22,0-1.64.54-1.12-.19-4.6-2.31-10.93-9.98-12.03-15.25-15.54,5.07-2.74,4.42-5.76,1.88-10.44-.8-1.47-1.62-2.6-2.74-3.14l-3.15-1.75-1.83-7.36c-.56-1.04-1.72-1.96-2.4-2.52-1.37-1.12-1.57-.45-2.64-2.28-2.84-4.91-5.89-2.61-9.07-.44l-9.35,7.18Z"/>
      <path class="cls-9" d="m88.96,201.75c-1.12,1.84-1.7,5.6-1.79,8.34-.17,5.11-.42,6.92,3.49,6.5.35,1.91.14,3.97,2.5,4.68,1.01.3.57.2,1.37,1.24,1.51,1.94-.06,4.37-.42,6.59-.95,5.84-.07,7.69-.13,8.69-.02.36-.58,1.24-.73,1.54-.53,1.08-.91,2.12-1.42,3.24-.49,1.07-.82,2.07-1.3,3.11l-2.29,6.3c-1.64,5.5-4.03,10.92-10.34,14.48-8.38,4.73-15.63,10.31-20.56,18.43-.54.89-1.26,2.4-1.88,3.11-3.69,4.2-9.43,6.43-14.56,6.85-4.86.4-9.52-5.76-11.14-9.94-2.54-6.55-2.78-14.92-.89-21.22.57-1.91,1.34-4.39,1.24-6.8-.44-10.37-12.69-18.32-20.08-3.35-.72,1.46-3.95,3.73-5.26,5.42-3.17,4.07-2.42,8.32-3.34,12.98-.73,3.69,3.07.29.64,8.05-.12.38-.46,1.15-.54,1.58-.26,1.42.86,2.59,2.03,2.59,1.83,0,5.43-3.51,6.68-4.72,2.29-2.22,1.81.21,5.29-4.72.75-1.06,1.29-1.89,1.85-2.94.43-.82,1.13-2.44,1.64-3.13-.04,5.3-.54,9.38.4,14.92,1,5.92,3.26,11.31,7.78,15.69,8.11,7.83,18.89,7.96,28.87,3.88.24,2.12-.13,6.44-.37,8.69-.84,7.84-2.37,10.02-8.1,15.4-3.27,3.08-4.82,3.4-3.18,7.98,1.71,4.79,9.82,20.15,15.02,21.89,2.46.83,2.55-.37,4.64-.35,1.58.01,2.51.65,4.15.75,2.76.17,7.56-1.81,9.24-4.09.52-.7.6-.93,1.35-1.7,1.79-1.82,2.53-3.44,1.77-6.13-.43-1.5-2.36-2.7-3.44-3.41-2.87-1.9-4.71-2.77-8.71-.72-2.37,1.21-5.39,4.54-8.13-2.57-1.64-4.24,10.12-7.43,15.86-12.57,3.69-3.3,6.23-6.69,8.88-10.64.8-1.19,1.57-2.72,2.38-3.78,1.4.17,3.75,1.47,4.56,3.58,1.69,4.4-3.02,7.51,2.46,10.79,1.49.89,3.71,1.29,5.32,1.49,8.37,1.02,16.01-1.58,17.66-1.24,2.15.43,5.77,3.08,11.77-1.74,1.88-1.51,1-2.18,2.88-3.36,1.22-.77,2.31-2.25,3.32-3.35,2.93-3.19-.04-5.7-2.65-7.23-2.91-1.71-7.22-3.44-11.25-.38-5.41,4.11-5.54,4.58-11.53,4.16.91-2.95,4.88-8.16,5.1-15.34.06-1.88-.16-3.89-.82-6.02,2.53-1.59,4.82-3.24,7.13-5.05,2.12-1.66,4.48-3.96,6.57-5.4,3.41,4.16,4.67,4.96,7.99,10.14,1.27,1.99,2.54,4.13,3.65,6.22,2.97,5.59,2.75,6.15,9.23,5.76,5.72-.34,4.61,7.19,16.66-.24,3.57-2.2,7-6.02,6.72-9.05-.31-3.46-5.86-8.1-7.98-8.47-3.91-.69-6.11,3.44-11.54,1.8-3.02-.91-4.85-8.85-6.02-11.81.86.01,1.05.33,1.91.37,1.92.08,4.62,1.4,6.17.56,1.45-.78,1.57-2.82.03-3.8-1.77-1.12-2.12-.98-3.14-3.48,1.01-.56,1.37-.71,1.68-1.57.77-2.14,1.04-4.21.67-6.62,2.21-.78,2.92-1.99,1.39-4.06,5.27-1.14,7.66-3.22,11.16-7.05,4.1-4.48,7.61-9.2,10.19-14.44.91-1.84,1.53-3.26,2.77-5.12,2.13-3.18,2.42-1.39,5.4-2.61,2.8-1.14,3.63-3.05,5.79-4.09,1.9.7,2.22,3.02,4.55,1.85,1.2-.6,1.2-1.27,1.96-1.95,1.12-1,1.17-.71,1.63-2.12.28-.86.31-1.33.33-2.35.02-1.12.39-1.27.15-2.57-.37-2.02-1.07-3.84-2.13-5.7,2.59-2.83-2.74-7.18-5.66-7.71-3.13-.57-8.01.17-10.96,3.12-3.05,3.04-3.11,6-5.51,8.84-2.63,3.11-6.94,5.18-10.64,7.42-.03-.76,2.28-7.2-2.45-11.83.05-1.53,1.23-1.74-.31-6.73-3.38-10.93-14.88-11.12-15.44-14.54,3.52-2.72,6.02-2.19,3.46-7.68-.73-1.56-1.61-3.68-3.06-4.31-2-.87-1.42-1.83-3.95-1.49.2-1.91-.1-2.65-.85-4.77-.67-1.89.37-2.63-1.73-4.68-1.2-1.17-3.06-1.8-3.69-2.86-2.74-4.56-3.35-4.07-13.11,3.59-6.07,4.77-2.17,2.73-6.35,3.12-2.85.27-3.94,2.59-6.12,4.52-4.42,3.93-5.43,1.4-10.98,10.53-1.53,2.52-9.34,4.26-11.54,10.2-.68,1.85-1.11,2.75.68,4.6"/>
      <path class="cls-4" d="m89.91,199.31c1.35-.54,2.53-1.15,3.82-.81-.21.46-1.95,2.25-2.52,3.36-1.6,3.08-2.45,8.98-1.69,12.44.86-1.21,1.34-2.19,2.54-3.46,1.25-1.32,2.12-2.03,3.06-3.49.74,2.7-3.43,7.42-1.79,11.57.17-.28,1.91-4.78,2.73-3.14.64,1.3-.52,3.47-.09,4.78.29.9,2.24,1.38,1.3,5.1-.77,3.06-2,7.08-1.32,10.45,1.85-1.69,5.34-5.64,9.17-4.98-6.28,3.52-9.02,6.72-11.55,13l-2.9,7.35c-1.04,2.56-1.49,4.94-2.88,7.53-4.97,9.23-11.74,10.02-19.23,16.29-10.34,8.65-8.07,12.35-15.28,17.45-4.01,2.83-8.09,3.9-12.35,4.32-2.94.29-7.13-2.35-9.52-5.04-3-3.37-4.46-7.71-5.21-11.85-.69-3.85-.9-7.69-.54-11.16.19-1.9.4-3.51.93-5.31.44-1.5,1.05-3.58,1.28-5.21,1.06-7.55-8.18-17.06-14.69-6.11-1.07,1.79-1.4,3.09-3.14,4.48-6.27,5-5.31,7.26-6.26,14.73.1-.78,1.59-3.93,2.72-4.83l-1.08,3.58c-.72,3.86.18,5.97-1.59,11.33,1.88-.11,6.4-5.74,8.11-7.01l-.14,1.26c1.03-.9,3.12-4.11,3.66-5.21,1.27-2.61,1.77-2.79,1.85-5.91.08-3-1.22-4.3-2.19-7.11-.41-1.19.51-2.13,1.11-3,3.53-5.09,6.54-2.81,7.22,1.45.71,4.46-2.68,8.82-2.53,18.81.13,9.05,1.86,19.78,11.03,25.24,8.99,5.35,16.71,3.64,26.28-.25.77,2.98-.57,16.2-1.65,18.97-1.92,4.95-5.39,8.03-9.56,11.84-.93.85-1.22.94-1.03,2.13.14.9.61,2.05,1,2.95,1.92,4.38,9.93,19.18,13.67,19.35,1.55.07,2.39-.91,5.02-.45,1.8.32,2.33.99,4.79.3,1.38-.39,4.26-1.78,5.11-2.87l1.61-1.96c.69-.73,1.2-1.55,1.61-2.14l-.42-1.55c-.28-1.37-3.24-3.29-4.76-3.84-4.95-1.78-9.48,8.71-14.88-1.9-3.31-6.51,5.34-9.48,10.45-12.24,2.83-1.53,5.19-3.47,7.31-5.61,1.94-1.95,3.64-4.08,5.12-6.17.97-1.37,3.52-5.86,4.17-6.46,2.23-2.02,10.24,1.37,8.3,10.17-.28,1.3-.74,2.46,1.09,3.71,1.28.87,2.15,1.01,3.48,1.22,2.42.37,4.9.4,7.6.28,2.67-.12,5.21-.27,8.04-1.16,3.65-1.14,4.66.85,7.4.91,1.37.03,2.78-.39,4.14-1.13,2.78-1.52,2.38-1.53,2.86-2.95.45-1.34,2.38-1.4,3.27-2.89.45-.74,2.4-2.19,2.33-3.26-.68-1.78-4.87-3.67-5.94-3.95-5.67-1.48-8.92,5.62-14.63,5.72-1.2.02-2.6-.01-3.63-.12-1.37-.14-2.38-.05-3.21-1.71,3.75-7.13,8.45-14.57,4.42-23.03-1.81-3.81-3.5-5.31-5.73-8.28,2.57,1.68,4.82,4.96,6.7,7.97,2.74-1.45,5.87-3.86,8.22-5.75,2.28-1.83,5.19-4.71,7.38-6.19,3.29,3.37,5.53,5.53,8.44,9.77,1.23,1.79,7.13,12.43,7.6,12.74,1.12.74,3.7.33,5.47.37,4.8.1,4.85,4.54,10.69,2.23,1.94-.77,5.05-2.47,6.5-3.82,4.15-3.87,4.47-5.7.05-9.97-4.44-4.29-5.68.26-11.45.35-5.5.08-6.58-2.65-8.73-8.1-.8-2.03-1.47-4.1-2.06-6.17-.38-1.33-1.63-4.92-1.27-6.34,1.87,2.75,2.69,3.13,5.06,4.32l-1.82-2.42c2.47,1.3,3.88,3.32,6.88,3.27-2.11-1.41-3.4-2.66-4-5.77-.32-1.66-.53-4.74.33-6.32,1.15,1.56,1.19,2.5,1.63,4.14,1.05-2.44.82-6-.31-9.19,1.2.69,1.52,1.39,2.77,1.29-1.22-1.62-1.55-3.31-1.29-4.85,2.79,1.27,3.73,1.3,6.74-.43,5.5-3.17,10.88-10.8,13.9-15.82,1.75-2.91,4.14-9.62,7.31-11.12,2.38-1.12,3.01.72,6.8-2.86,3.45-3.26,3.21-1.83,6.5-1.35l.56,1.34c1.57-1.19.68-2.44,1.03-4.25l1.3,1.82c.59-1.18.37-2.46.54-3.33.11-.53.14-.13.05-.86-.56-4.37-2.61-5.26-4.39-7.59,1.22-.69,1.92-.38,2.78-.27-1.81-4.28-5.83-4.56-9.7-3.38-4.76,1.46-6.02,5.03-7.39,8.12-3.15,7.05-14.07,9.32-18.71,15.63-3.57-4.43-4.97-6.11-9.51-8.52-3.66-1.94-7-2.88-10.79-4.05,3.52-.06,7.73,1.28,10.61,2.3,6.35,2.25,6.92,4.42,9.5,6.1.48-2.23-1.72-8.2-2.86-10.79,1.15.23,2.47,1.16,3.49,2.3,1.71,1.9,1.44,2.9,1.87,4.88,1.79-2.27.15-7.35-2.1-10-1.97-2.32-5.77-6.45-6.86-9.41,3.43,1.35,4.41,3.09,7.14,6.18-.41-6.22-4.11-10.83-8.91-12.97-14.3-6.36-4.1-8.42-3.2-9.98.26-.45.13-1.32-.14-2.03-1.78-4.72-1.96-3.13-3.47-4.5-.34-.31-.56-.61-.8-.86-.28,1.93.69,1.65-.95,3.63-3.01,3.64-3.17,4.67-6.92-3.87-.83-1.9.51-3.94,1.92-5.3.85.54,1.86,1.78,2.78,2.25-.28-1.52-.53-2-1.09-3.49-.62-1.64.67-1.66-.93-3.28-1.7-1.73-2.98-1.16-4.02-3.18-.41-.79-.54-1.2-1.11-1.92-2.18.53-10.41,7.18-12.24,8.89-1.67,1.57-1.37.94-3.02.72-3.42-.44-4.8,3.89-8.53,5.78-2.43,1.23-4.03,2.72-5.64,4.62-1.5,1.77-2.16,4.04-3.95,5.29-3.03,2.11-7.14,3.25-9.04,6.75l-1.11,2.75Z"/>
      <path class="cls-4" d="m17.26,257.04c1.89,3.95,1.93,4.81,2.32,8.45l1.06-3.57c.29-1.35,1.6-7.17-.62-7.88-.9-.29-2.32,2.49-2.76,3"/>
      <path class="cls-4" d="m395.96,169.57c.11.06,3.19-.16,4.74.69,1.64.89,3.35,3.76,5.35,5.05,3.87,2.49,5.57,3.07,8.66,7.38l1.68,2.82c2.11,2.62,7.75,2.23,11.31,9.91,1.96,4.24-.48,4.49.15,6.59.76,2.56,2.02,10.84.73,13.23-.67,1.23-1.9,1.82-3.13,1.8-.47,1.72-.98,3.51-2.73,4.33-.78.36-.42.03-1.03.65-.24.24-.69.82-.89,1.12.61,1.16.95,3.14,1.24,4.52l.45,4.76c.15,6.45-.91,2.44,2.07,9.34l2.59,6.56c1.77,5.66,3.77,11.12,8.8,14.85,1.64,1.22,3.69,2.03,5.55,3.24,7.14,4.67,13.25,10.09,17.42,17.18,2.42,4.11,3.4,4.59,7.76,6.95,2.05,1.11,7.08,2.64,9.06,1.69,2.57-1.23,5.26-3.28,7.1-6.67,3.33-6.15,3.44-14.83,2.41-20.28-.15-.79-.31-1.28-.46-2.13-.73-4.08-3.12-7.24.29-13.54,2.11-3.9,5.33-6.63,9.68-6.79,7.43-.28,10,7.76,11.69,9.7,2.62,2.98,6.7,4.43,7.5,11.39l.88,8.13c-.39,3-1.94.95-1.15,5.23.2,1.11,2.97,6.55-2.18,7.18-2.56.32-6.14-3.54-7.96-5.23-.78-.72-1.11-.55-2.13-1.1-1.78-.96-2.69-3.44-3.98-4.58-.13,13.57-4.39,26.2-18,31.12l-3.2.99c-2.74.48-5.57.55-8.51.16-1.89-.25-5.66-.99-7.52-1.81-.16.65-.05,1.57,0,2.27.08.89.11,1.6.14,2.4.37,9.17,2,10.99,7.8,16.54,1.15,1.1,2.97,2.44,3.68,3.62,2.62,4.36-4.21,13.64-6.12,17.19-8.48,15.77-12.86,10.75-15.41,11.02-2.28.24-3.11,1.15-5.93.62-2.2-.41-4.7-1.71-6.83-3.26-.78-.57-3.69-4.1-4.14-4.88-1.17-2.04-1.07-4.5.1-6.67.67-1.23,5.08-3.92,6.18-4.47,4.18-2.07,8.61,1.71,10.4,2.68,1.08-.57.89-.08,1.86-1.39,1.32-1.79,1.97-2.69.2-4.29-.63-.57-1.34-1.2-2.34-1.75-8.15-4.52-12.14-6.19-17.69-13.43-2.03-2.65-3.81-5.13-5.25-7.87-2.77,1.46-3.65,3.39-2.68,6.56,1.78,5.88-3.92,8.43-8.73,9.11-.77.11-1.42.11-2.23.15-3.71.17-8.12.05-11.74-.72-2.79-.6-1.9-1.16-4.64-.33-1.74.53-2.36.8-4.32.74-7.05-.22-9.97-5.99-10.13-6.14-1.12-1.01-1.63-1.07-2.74-2.5-.33-.42-.41-.46-.77-.82-6.01-5.98,2.99-11.11,8.17-11.89,3.79-.58,5.53.65,8.46,2.93,2.5,1.95,3.78,2.92,7.09,2.96-.16-1.73-4.12-7.56-4.19-14.3-.02-1.73.11-3.63.6-5.42-2.5-1.35-4.44-2.97-6.3-4.41-1.29-1-5.02-3.86-5.69-4.77-.7,1.07-4.07,4.69-5.62,6.96-1.74,2.56-3.64,5.65-5.17,8.47-1.63,3-1.83,6.29-7.52,6.42-1.1.02-2.2-.15-3.34-.09-2.15.12-2.99,1.95-5.82,2.74-4.86,1.37-13.97-4.45-16.6-8.44-3.14-4.76-1.3-8.15,2.54-11.81,7.23-6.89,8.85.05,15.63-.87,2.2-.3,3.3-4.25,3.93-5.94.43-1.15,1.56-2.87.71-3.13-.89-.28-3.91,1.75-6.34.43-1.66-.9-2.4-3.02-1.54-4.61.87-1.61,2.3-1.7,3.6-3.17-.4-.56-.62-.62-.97-1.28-.17-.32-.5-1.04-.62-1.39-.46-1.35-.15-4.66-.92-5.49-.98-1.04-2.03-1.99-1.55-3.73l-3.65-1.71c-6.05-3.28-13.14-13.19-16.5-19.55-5.94-11.23-2.48-4.74-9.07-8.31-1.6-.87-2.74-2.4-4.13-3.31-1.74,1.26-2.07,3.19-5.76,1.19-.62-.34-2.94-2.99-3.3-3.74-1.32-2.75-1.07-7.13.16-9.83.74-1.62.84-1.15.51-2.6-.61-2.74,2.93-7.98,8.21-8.49,2.79-.27,6.17.33,9.34,2.05,5.07,2.74,4.81,8.47,9.62,12.51.98.82,4.29,2.83,5.64,3.56.02-1.77-.14-2.71.44-4.67.33-1.14,2.27-4.66,2.27-5.22,0-1.64-.54-1.12.19-4.6,2.31-10.93,9.98-12.03,15.25-15.54-5.07-2.74-4.42-5.76-1.88-10.44.8-1.47,1.62-2.6,2.74-3.14l3.15-1.75,1.83-7.36c.56-1.04,1.72-1.96,2.4-2.52,1.37-1.12,1.57-.45,2.64-2.28,2.84-4.91,5.89-2.61,9.07-.44l9.35,7.18Z"/>
      <path class="cls-9" d="m425.87,200.72c1.12,1.84,1.7,5.6,1.79,8.34.17,5.11.42,6.92-3.49,6.5-.35,1.91-.14,3.97-2.5,4.68-1.01.3-.57.2-1.37,1.24-1.51,1.94.06,4.37.42,6.59.95,5.84.07,7.69.13,8.69.02.36.58,1.24.73,1.54.53,1.08.91,2.12,1.42,3.24.49,1.07.82,2.06,1.3,3.11l2.29,6.3c1.64,5.5,4.03,10.92,10.34,14.48,8.38,4.73,15.63,10.31,20.56,18.43.54.89,1.26,2.4,1.88,3.11,3.69,4.2,9.43,6.43,14.56,6.85,4.86.4,9.52-5.76,11.14-9.94,2.54-6.55,2.78-14.92.89-21.22-.57-1.91-1.34-4.39-1.24-6.8.44-10.37,12.69-18.32,20.08-3.35.72,1.46,3.95,3.73,5.26,5.42,3.17,4.07,2.42,8.32,3.34,12.98.73,3.69-3.07.29-.64,8.05.12.38.46,1.15.54,1.58.26,1.42-.86,2.59-2.03,2.59-1.83,0-5.43-3.51-6.68-4.72-2.29-2.22-1.81.21-5.29-4.72-.75-1.06-1.29-1.89-1.85-2.94-.43-.82-1.13-2.44-1.64-3.13.04,5.3.54,9.38-.4,14.92-1,5.92-3.26,11.31-7.78,15.69-8.11,7.83-18.89,7.96-28.87,3.88-.24,2.12.13,6.44.37,8.69.84,7.84,2.37,10.02,8.1,15.4,3.27,3.07,4.82,3.4,3.18,7.98-1.71,4.79-9.82,20.15-15.02,21.89-2.46.83-2.55-.37-4.64-.35-1.58.01-2.51.65-4.15.75-2.76.17-7.56-1.81-9.24-4.09-.52-.7-.6-.93-1.35-1.7-1.79-1.82-2.53-3.44-1.77-6.13.43-1.5,2.36-2.7,3.44-3.41,2.87-1.9,4.71-2.77,8.71-.72,2.37,1.21,5.39,4.54,8.13-2.57,1.64-4.24-10.12-7.43-15.86-12.57-3.69-3.3-6.23-6.69-8.88-10.64-.8-1.19-1.57-2.72-2.38-3.78-1.4.17-3.75,1.47-4.56,3.58-1.69,4.4,3.02,7.51-2.46,10.79-1.49.89-3.71,1.29-5.32,1.49-8.37,1.02-16.01-1.58-17.66-1.24-2.15.43-5.77,3.08-11.77-1.74-1.88-1.51-1-2.19-2.88-3.36-1.22-.77-2.31-2.25-3.32-3.35-2.93-3.19.04-5.7,2.65-7.23,2.91-1.71,7.22-3.44,11.25-.38,5.41,4.11,5.54,4.58,11.53,4.16-.91-2.95-4.88-8.16-5.1-15.34-.06-1.88.16-3.89.82-6.02-2.53-1.59-4.82-3.24-7.13-5.05-2.12-1.66-4.48-3.96-6.57-5.4-3.41,4.16-4.67,4.96-7.99,10.14-1.27,1.99-2.54,4.13-3.65,6.22-2.97,5.59-2.75,6.14-9.23,5.76-5.72-.34-4.61,7.19-16.66-.24-3.57-2.2-7-6.02-6.72-9.05.31-3.46,5.86-8.1,7.98-8.47,3.91-.69,6.11,3.44,11.54,1.8,3.02-.91,4.85-8.85,6.02-11.81-.86.01-1.05.33-1.91.37-1.92.08-4.62,1.4-6.17.56-1.45-.78-1.57-2.82-.03-3.8,1.77-1.13,2.12-.98,3.14-3.48-1-.56-1.37-.71-1.68-1.57-.77-2.14-1.04-4.21-.67-6.62-2.21-.78-2.92-1.99-1.39-4.06-5.27-1.14-7.66-3.22-11.16-7.05-4.1-4.48-7.61-9.2-10.19-14.44-.91-1.84-1.53-3.26-2.77-5.12-2.13-3.18-2.42-1.39-5.4-2.61-2.8-1.14-3.63-3.05-5.79-4.09-1.9.7-2.22,3.02-4.55,1.85-1.2-.6-1.2-1.27-1.96-1.95-1.12-1-1.17-.71-1.63-2.12-.28-.86-.31-1.33-.33-2.35-.02-1.12-.39-1.27-.15-2.57.37-2.02,1.07-3.84,2.13-5.7-2.59-2.83,2.74-7.18,5.66-7.71,3.13-.57,8.01.17,10.96,3.12,3.05,3.04,3.11,6,5.51,8.84,2.63,3.11,6.94,5.18,10.64,7.42.03-.76-2.28-7.2,2.45-11.83-.05-1.53-1.23-1.74.31-6.73,3.38-10.93,14.88-11.13,15.44-14.54-3.52-2.71-6.02-2.19-3.46-7.68.73-1.56,1.61-3.68,3.06-4.31,2-.87,1.42-1.83,3.95-1.49-.2-1.91.1-2.65.85-4.77.67-1.89-.37-2.63,1.73-4.68,1.2-1.17,3.06-1.8,3.69-2.86,2.74-4.56,3.35-4.07,13.11,3.59,6.07,4.77,2.17,2.73,6.35,3.12,2.85.27,3.94,2.59,6.12,4.52,4.42,3.93,5.43,1.4,10.98,10.53,1.53,2.52,9.34,4.26,11.54,10.2.68,1.85,1.11,2.75-.68,4.6"/>
      <path class="cls-4" d="m424.92,198.27c-1.35-.54-2.53-1.15-3.82-.81.21.46,1.95,2.25,2.52,3.36,1.6,3.08,2.45,8.98,1.69,12.44-.86-1.21-1.34-2.19-2.54-3.46-1.25-1.32-2.12-2.03-3.06-3.49-.74,2.7,3.43,7.42,1.79,11.57-.17-.28-1.91-4.78-2.73-3.14-.64,1.3.52,3.47.09,4.78-.29.9-2.24,1.38-1.3,5.1.77,3.06,2,7.08,1.32,10.45-1.85-1.69-5.34-5.64-9.17-4.98,6.28,3.52,9.02,6.72,11.55,13l2.9,7.35c1.04,2.56,1.49,4.94,2.88,7.53,4.97,9.23,11.74,10.02,19.23,16.29,10.34,8.65,8.07,12.35,15.28,17.45,4.01,2.83,8.09,3.9,12.35,4.32,2.94.29,7.13-2.35,9.52-5.04,3-3.37,4.46-7.71,5.21-11.85.69-3.85.9-7.69.54-11.16-.19-1.9-.4-3.51-.93-5.31-.44-1.5-1.05-3.58-1.28-5.21-1.06-7.55,8.18-17.06,14.69-6.11,1.07,1.79,1.4,3.09,3.14,4.48,6.27,5,5.31,7.26,6.26,14.73-.1-.78-1.59-3.93-2.72-4.83l1.08,3.58c.72,3.86-.18,5.97,1.59,11.33-1.88-.11-6.4-5.74-8.11-7.01l.14,1.26c-1.03-.9-3.12-4.11-3.66-5.21-1.27-2.61-1.77-2.79-1.85-5.91-.08-3,1.22-4.3,2.19-7.11.41-1.19-.51-2.13-1.11-3-3.53-5.09-6.54-2.81-7.22,1.45-.71,4.46,2.68,8.82,2.53,18.81-.13,9.05-1.86,19.78-11.03,25.24-8.99,5.35-16.71,3.64-26.28-.25-.77,2.98.58,16.2,1.65,18.97,1.92,4.95,5.39,8.03,9.56,11.84.93.85,1.22.94,1.03,2.13-.14.9-.61,2.05-1,2.95-1.92,4.38-9.93,19.18-13.67,19.35-1.55.07-2.39-.91-5.02-.45-1.8.32-2.33.99-4.79.3-1.38-.39-4.26-1.78-5.11-2.87l-1.61-1.96c-.69-.73-1.2-1.55-1.61-2.14l.42-1.55c.28-1.37,3.24-3.29,4.76-3.84,4.95-1.78,9.48,8.71,14.88-1.9,3.31-6.51-5.34-9.48-10.45-12.24-2.83-1.53-5.19-3.47-7.31-5.61-1.94-1.95-3.64-4.08-5.12-6.17-.97-1.37-3.52-5.86-4.17-6.46-2.23-2.02-10.24,1.37-8.3,10.17.28,1.3.74,2.46-1.09,3.71-1.28.87-2.15,1.01-3.48,1.22-2.42.37-4.9.4-7.6.28-2.67-.12-5.21-.27-8.04-1.16-3.65-1.14-4.66.85-7.4.91-1.37.03-2.78-.39-4.14-1.13-2.78-1.52-2.38-1.52-2.86-2.95-.45-1.34-2.38-1.4-3.27-2.88-.45-.74-2.4-2.19-2.33-3.26.68-1.78,4.87-3.67,5.94-3.95,5.67-1.48,8.92,5.62,14.63,5.72,1.2.02,2.6,0,3.63-.11,1.37-.14,2.38-.05,3.21-1.71-3.75-7.13-8.45-14.57-4.42-23.03,1.81-3.81,3.5-5.3,5.73-8.28-2.57,1.68-4.82,4.96-6.7,7.97-2.74-1.45-5.87-3.86-8.22-5.75-2.28-1.83-5.19-4.71-7.38-6.19-3.29,3.37-5.53,5.53-8.44,9.77-1.23,1.79-7.13,12.43-7.6,12.74-1.12.74-3.7.33-5.47.37-4.8.1-4.85,4.54-10.69,2.23-1.94-.77-5.05-2.47-6.5-3.82-4.15-3.87-4.47-5.7-.05-9.97,4.44-4.29,5.68.26,11.45.35,5.5.08,6.58-2.65,8.73-8.1.8-2.03,1.47-4.1,2.06-6.17.38-1.33,1.63-4.92,1.27-6.34-1.87,2.74-2.69,3.13-5.06,4.32l1.82-2.42c-2.47,1.3-3.88,3.32-6.88,3.27,2.11-1.41,3.4-2.66,4-5.77.32-1.66.53-4.74-.33-6.32-1.15,1.56-1.19,2.5-1.63,4.14-1.05-2.44-.82-6,.31-9.19-1.2.69-1.52,1.39-2.77,1.29,1.22-1.62,1.55-3.31,1.29-4.85-2.79,1.27-3.73,1.31-6.74-.43-5.5-3.17-10.88-10.8-13.9-15.82-1.75-2.91-4.14-9.62-7.31-11.12-2.38-1.12-3.01.72-6.8-2.86-3.45-3.26-3.21-1.83-6.5-1.35l-.56,1.34c-1.57-1.19-.68-2.44-1.03-4.25l-1.3,1.82c-.59-1.18-.37-2.46-.54-3.33-.11-.53-.14-.13-.05-.86.56-4.37,2.61-5.26,4.39-7.59-1.22-.69-1.92-.38-2.78-.27,1.81-4.28,5.83-4.56,9.7-3.38,4.76,1.46,6.02,5.03,7.39,8.12,3.15,7.05,14.07,9.32,18.71,15.63,3.57-4.43,4.97-6.11,9.51-8.52,3.66-1.94,7-2.88,10.79-4.05-3.52-.06-7.73,1.28-10.61,2.3-6.35,2.25-6.92,4.42-9.5,6.1-.48-2.23,1.72-8.2,2.86-10.79-1.15.23-2.47,1.16-3.49,2.3-1.71,1.9-1.44,2.9-1.87,4.88-1.79-2.27-.15-7.35,2.1-10,1.97-2.32,5.77-6.45,6.86-9.41-3.43,1.35-4.41,3.09-7.14,6.18.41-6.22,4.11-10.83,8.91-12.97,14.3-6.36,4.1-8.42,3.2-9.98-.26-.45-.13-1.32.14-2.03,1.78-4.72,1.96-3.13,3.47-4.5.34-.31.56-.61.8-.86.28,1.93-.69,1.65.95,3.63,3.01,3.64,3.17,4.67,6.92-3.87.83-1.9-.51-3.94-1.92-5.3-.85.54-1.86,1.78-2.78,2.25.28-1.52.53-2,1.09-3.49.62-1.64-.67-1.66.93-3.28,1.7-1.73,2.98-1.16,4.02-3.18.41-.79.54-1.2,1.11-1.92,2.18.53,10.41,7.18,12.24,8.89,1.67,1.57,1.37.94,3.02.72,3.42-.44,4.8,3.89,8.53,5.78,2.43,1.23,4.03,2.72,5.64,4.62,1.5,1.77,2.16,4.04,3.95,5.29,3.03,2.11,7.14,3.25,9.04,6.75l1.11,2.75Z"/>
      <path class="cls-4" d="m497.57,256c-1.89,3.95-1.93,4.81-2.32,8.45l-1.06-3.57c-.29-1.35-1.6-7.17.62-7.88.9-.29,2.32,2.49,2.76,3"/>
      <g>
        <path class="cls-2" d="m85.73,360.99v52.92h-7.75v-35.73s-3.1,35.73-3.1,35.73h-5.5l-3.25-34.91v34.91h-7.76v-52.92h11.47c.34,3.18.69,6.93,1.05,11.25l1.26,13.46,2.04-24.71h11.53Z"/>
        <path class="cls-2" d="m109.55,391.98c0,5.32-.08,9.08-.24,11.3s-.67,4.23-1.52,6.06c-.85,1.83-2,3.24-3.44,4.22-1.45.98-3.13,1.47-5.05,1.47-1.82,0-3.46-.46-4.92-1.39-1.45-.92-2.62-2.31-3.51-4.17-.88-1.85-1.41-3.87-1.58-6.05-.17-2.18-.25-5.99-.25-11.44v-9.05c0-5.32.08-9.08.24-11.29.16-2.21.67-4.23,1.52-6.06.85-1.83,2-3.24,3.44-4.22,1.44-.98,3.13-1.47,5.05-1.47,1.82,0,3.46.46,4.92,1.39,1.45.93,2.62,2.32,3.51,4.17.88,1.85,1.41,3.87,1.58,6.05.17,2.18.25,5.99.25,11.44v9.05Zm-8.87-17.39c0-2.46-.09-4.04-.26-4.72-.17-.69-.54-1.03-1.08-1.03-.46,0-.82.28-1.06.83-.25.56-.37,2.2-.37,4.92v24.71c0,3.07.08,4.97.24,5.69.16.72.54,1.08,1.13,1.08s.99-.41,1.16-1.24.25-2.8.25-5.92v-24.32Z"/>
        <path class="cls-2" d="m133.01,360.99v35.37c0,4.01-.08,6.83-.25,8.45-.17,1.63-.67,3.29-1.5,5-.83,1.71-1.92,3.01-3.27,3.89-1.36.88-2.95,1.32-4.79,1.32-2.04,0-3.83-.52-5.39-1.57-1.56-1.05-2.72-2.41-3.5-4.09s-1.23-3.45-1.37-5.31c-.14-1.86-.21-5.78-.21-11.75v-31.31h8.87v39.69c0,2.31.08,3.79.24,4.43.16.64.49.96.98.96.56,0,.92-.35,1.08-1.06.16-.71.24-2.38.24-5.02v-39h8.87Z"/>
        <path class="cls-2" d="m136.44,360.99h6.27c4.18,0,7.02.25,8.5.75,1.48.5,2.69,1.78,3.62,3.84.93,2.06,1.4,5.34,1.4,9.85,0,4.12-.33,6.89-.99,8.3s-1.96,2.27-3.9,2.55c1.76.67,2.93,1.58,3.54,2.71s.98,2.17,1.13,3.12c.15.95.22,3.56.22,7.83v13.96h-8.23v-17.59c0-2.83-.14-4.59-.43-5.26-.29-.68-1.04-1.01-2.26-1.01v23.86h-8.87v-52.92Zm8.87,9.05v11.77c1,0,1.7-.21,2.09-.64.4-.43.6-1.8.6-4.14v-2.91c0-1.68-.19-2.78-.58-3.3-.39-.52-1.09-.79-2.12-.79Z"/>
        <path class="cls-2" d="m159.67,360.99h14.78v10.59h-5.92v10.04h5.54v10.07h-5.54v11.64h6.51v10.59h-15.37v-52.92Z"/>
        <path class="cls-2" d="m185.19,360.99h8.93c2.41,0,4.27.29,5.57.88,1.3.59,2.27,1.44,2.93,2.55.65,1.11,1.09,2.46,1.33,4.04s.35,4.03.35,7.34v4.61c0,3.38-.23,5.84-.67,7.39-.45,1.55-1.28,2.74-2.47,3.56-1.2.83-2.77,1.24-4.71,1.24h-2.38v21.31h-8.87v-52.92Zm8.87,9.05v13.47c.25.02.47.03.65.03.81,0,1.38-.31,1.7-.93.32-.62.47-1.91.47-3.88v-4.35c0-1.81-.18-2.98-.55-3.53-.37-.54-1.12-.82-2.27-.82Z"/>
        <path class="cls-2" d="m206.84,360.99h6.27c4.18,0,7.02.25,8.5.75,1.48.5,2.69,1.78,3.62,3.84.93,2.06,1.4,5.34,1.4,9.85,0,4.12-.33,6.89-.99,8.3s-1.96,2.27-3.9,2.55c1.76.67,2.93,1.58,3.54,2.71s.98,2.17,1.13,3.12c.15.95.22,3.56.22,7.83v13.96h-8.23v-17.59c0-2.83-.14-4.59-.43-5.26-.29-.68-1.04-1.01-2.26-1.01v23.86h-8.87v-52.92Zm8.87,9.05v11.77c1,0,1.7-.21,2.09-.64.4-.43.6-1.8.6-4.14v-2.91c0-1.68-.19-2.78-.58-3.3-.39-.52-1.09-.79-2.12-.79Z"/>
        <path class="cls-2" d="m230.07,360.99h14.78v10.59h-5.92v10.04h5.54v10.07h-5.54v11.64h6.51v10.59h-15.37v-52.92Z"/>
        <path class="cls-2" d="m275.35,360.99v52.92h-7.75v-35.73s-3.1,35.73-3.1,35.73h-5.5l-3.25-34.91v34.91h-7.76v-52.92h11.47c.34,3.18.69,6.93,1.05,11.25l1.26,13.46,2.04-24.71h11.53Z"/>
        <path class="cls-2" d="m287.77,360.99v52.92h-8.87v-52.92h8.87Z"/>
        <path class="cls-2" d="m291.33,360.99h14.78v10.59h-5.92v10.04h5.54v10.07h-5.54v11.64h6.51v10.59h-15.37v-52.92Z"/>
        <path class="cls-2" d="m309.25,360.99h6.28c4.18,0,7.02.25,8.5.75,1.48.5,2.69,1.78,3.62,3.84.93,2.06,1.4,5.34,1.4,9.85,0,4.12-.33,6.89-.99,8.3-.66,1.42-1.96,2.27-3.9,2.55,1.76.67,2.94,1.58,3.54,2.71.6,1.13.98,2.17,1.13,3.12.15.95.22,3.56.22,7.83v13.96h-8.23v-17.59c0-2.83-.14-4.59-.43-5.26-.29-.68-1.04-1.01-2.26-1.01v23.86h-8.87v-52.92Zm8.87,9.05v11.77c1,0,1.69-.21,2.09-.64.4-.43.6-1.8.6-4.14v-2.91c0-1.68-.19-2.78-.58-3.3-.39-.52-1.09-.79-2.12-.79Z"/>
        <path class="cls-2" d="m348.95,360.99v42.33h5.39v10.59h-14.26v-52.92h8.87Z"/>
        <path class="cls-2" d="m356.49,360.99h14.78v10.59h-5.92v10.04h5.54v10.07h-5.54v11.64h6.51v10.59h-15.37v-52.92Z"/>
        <path class="cls-2" d="m389.73,360.99l5.07,52.92h-9.06l-.48-9.51h-3.17l-.53,9.51h-9.17l4.52-52.92h12.81Zm-4.7,34.03c-.45-6-.9-13.41-1.35-22.23-.9,10.13-1.47,17.54-1.7,22.23h3.05Z"/>
        <path class="cls-2" d="m416.65,380.48h-8.86v-4.8c0-3.03-.08-4.93-.25-5.69-.17-.76-.57-1.14-1.2-1.14-.55,0-.92.33-1.11.98-.2.66-.3,2.33-.3,5.04v25.4c0,2.38.1,3.94.3,4.69.2.75.59,1.13,1.18,1.13.65,0,1.08-.42,1.32-1.27.23-.85.35-2.5.35-4.97v-6.28h-1.79v-8.04h10.38v28.41h-5.57l-.82-3.79c-.61,1.63-1.37,2.86-2.29,3.68-.92.82-2.01,1.23-3.25,1.23-1.49,0-2.88-.56-4.18-1.68-1.3-1.12-2.29-2.51-2.96-4.17-.68-1.65-1.1-3.39-1.27-5.21-.17-1.82-.25-4.55-.25-8.19v-15.73c0-5.06.17-8.73.53-11.01.35-2.29,1.36-4.39,3.02-6.29,1.66-1.91,3.81-2.86,6.45-2.86s4.75.83,6.47,2.48c1.71,1.66,2.83,3.62,3.35,5.9.52,2.28.78,5.58.78,9.92v2.29Z"/>
        <path class="cls-2" d="m440.24,360.99v35.37c0,4.01-.09,6.83-.25,8.45-.17,1.63-.67,3.29-1.5,5-.83,1.71-1.92,3.01-3.27,3.89-1.36.88-2.95,1.32-4.79,1.32-2.04,0-3.83-.52-5.39-1.57-1.56-1.05-2.72-2.41-3.5-4.09s-1.23-3.45-1.37-5.31c-.14-1.86-.21-5.78-.21-11.75v-31.31h8.86v39.69c0,2.31.08,3.79.24,4.43.16.64.49.96.98.96.56,0,.92-.35,1.08-1.06.16-.71.24-2.38.24-5.02v-39h8.87Z"/>
        <path class="cls-2" d="m443.67,360.99h14.78v10.59h-5.92v10.04h5.54v10.07h-5.54v11.64h6.51v10.59h-15.37v-52.92Z"/>
      </g>
    </g>
  </g>
</svg>