<?xml version="1.0" encoding="UTF-8"?>
<svg id="Capa_2" data-name="Capa 2" xmlns="http://www.w3.org/2000/svg" viewBox="0 0 511.15 467.48">
  <defs>
    <style>
      .cls-1, .cls-2 {
        fill: #fff;
        stroke-width: 0px;
      }

      .cls-2 {
        fill-rule: evenodd;
      }
    </style>
  </defs>
  <g id="Capa_1-2" data-name="Capa 1">
    <g>
      <path class="cls-2" d="m279.25,24.85c-8.28-8.28-16.57-16.57-24.85-24.85-8.28,8.28-16.57,16.57-24.85,24.85,8.03,4.45,13.36,10.33,11.17,18.31-1.41,5.12-4.11,8.33-8.64,10.87-20.61,11.56-36.48-15.55-18.1-28.85-8.39-6.45-18.31-13.88-26.7-20.33-8.17,8.82-16.35,18.73-24.53,27.55,22.43,5.79,19.37,30.78-3.31,32.91-20.42,1.91-24.2-19.69-11.05-29.31-10.21-5.51-21.07-11.22-32.03-16.46,7.75,21.62,12.83,43.62,17.99,65.67,35.59-9.07,75.42-14.92,120.05-17.1,44.63,2.19,84.46,8.04,120.05,17.1,5.16-22.05,10.25-44.05,17.99-65.67-10.96,5.24-21.82,10.95-32.03,16.46,13.15,9.63,9.36,31.22-11.05,29.31-22.68-2.12-25.74-27.11-3.31-32.91-8.17-8.82-16.35-18.73-24.53-27.55-8.39,6.46-18.31,13.88-26.7,20.33,18.38,13.3,2.5,40.41-18.1,28.85-4.53-2.53-7.23-5.75-8.64-10.87-2.19-7.98,3.14-13.85,11.17-18.31"/>
      <g>
        <path class="cls-2" d="m302.82,142.38c-2.79,2.03-5.66,3.99-8.57,5.96l-1.43.96c1.74,5.96,2.22,11.7,1.76,17.91,1.53.88,3.03,1.87,4.48,2.98.65.49,1.29,1.01,1.92,1.55.75.65,1.49,1.33,2.22,2.05,1.15,1.14,2.28,2.37,3.36,3.7.88-.32,1.77-.74,2.65-1.24.61-.35,1.21-.74,1.8-1.17,1.46-1.06,2.85-2.35,4.08-3.84.71-3.18.92-6.36.62-9.57-.15-1.63-.43-3.26-.85-4.9-.49-1.95-1.18-3.92-2.05-5.88-3.12-4.65-7.28-7.81-9.99-8.5Z"/>
        <path class="cls-2" d="m317.11,177.57c1.44-6.44,1.44-13.27-.24-19.99-.39-1.55-.86-3.1-1.43-4.63-.37-.99-.77-1.96-1.2-2.9-.03.64-.19,1.17-.35,1.54.76,1.84,1.35,3.68,1.78,5.51.36,1.5.61,3.01.75,4.51.3,3.28.09,6.54-.64,9.77.88,1.81,1.28,3.86,1.25,6.16,0,.14,0,.28-.01.42l.09-.39Z"/>
        <path class="cls-2" d="m279.37,125.57c2.29.03,4.56.32,6.83.87,3.2.78,6.42,2.08,9.76,3.97.13-.02.27-.03.42-.04-1.18-.68-2.39-1.31-3.63-1.88-4.94-2.27-10.3-3.62-15.8-3.92-1.3-.07-2.6-.09-3.91-.04,1.12.25,2.17.62,3.12,1.15,1.08-.09,2.15-.13,3.22-.12Z"/>
        <path class="cls-2" d="m252.41,205.63c.1.01.21.02.32.04,1.33.12,2.66.02,3.88-.33l-.08-.18c-.31-.76-.58-1.52-.79-2.3-.71-2.57-.92-5.23-.88-7.95-2.63-2.17-4.97-4.56-7.05-7.16-.43-.55-.86-1.1-1.27-1.66-1.43-1.95-2.72-4-3.89-6.15-2.95.03-5.84-.47-8.45-1.83-.31.8-.55,1.69-.72,2.64l-.03.17h0c-.06.39-.12.79-.16,1.19.13.38.26.76.41,1.14,1.98,5.35,4.9,10.08,8.51,14.07,1.08,1.19,2.21,2.31,3.4,3.36,2.11,1.87,4.39,3.53,6.8,4.95Z"/>
        <path class="cls-2" d="m237.59,145.05c-.31.5-.62,1.01-.91,1.53-.62,1.09-1.19,2.2-1.71,3.34-.31.68-.61,1.37-.89,2.07-.86,2.15-1.55,4.38-2.05,6.65.06.14.13.29.19.43.15.33.32.65.5.96.95-2.47,2.72-4.65,5.03-6.55.95-.78,2-1.52,3.11-2.2.25-.89.53-1.78.86-2.65.2-.55.42-1.09.66-1.63.63-1.44,1.36-2.86,2.2-4.22,1.59-2.58,3.55-5,5.88-7.18-.39-1.3-.68-2.57-.11-3.74-5.23,3.49-9.54,8.01-12.76,13.18Z"/>
        <path class="cls-2" d="m267.83,132.81c1.36,1.41,2.67,3.13,3.89,5.02.36.56.72,1.14,1.08,1.73,1,1.69,1.94,3.47,2.79,5.25,5.67-.02,11.57,1.38,16.7,3.98l1.17-.79c3.07-2.07,6.1-4.14,9.04-6.28-.11-2.58-1.53-5.71-3.66-8.2-.41-.48-.85-.94-1.31-1.36-3.98-2.48-7.75-4.13-11.49-5.04-1.56-.38-3.13-.63-4.7-.76-1.89-.15-3.79-.12-5.73.08-3.57,1.47-6.96,4.27-7.78,6.36Z"/>
        <path class="cls-2" d="m307.41,196.18c-.25.18-.5.35-.75.51,0,.33-.02.66-.07.99.4-.44.8-.89,1.19-1.35.38-.45.76-.91,1.12-1.38-.49.45-.99.86-1.49,1.22Z"/>
        <path class="cls-2" d="m257.99,133.51c-2.12.47-4.29,1.18-6.42,2.05-2.55,2.27-4.68,4.85-6.37,7.6-.82,1.33-1.54,2.71-2.16,4.12-.23.54-.45,1.09-.66,1.63-.31.84-.59,1.69-.83,2.54.6,1.54,1.25,3.01,2,4.41,1.28,2.42,2.82,4.64,4.76,6.66,2.42-.67,4.84-1.25,7.28-1.74.45-.09.9-.18,1.34-.26,2.91-.53,5.84-.91,8.79-1.13.11-.26.23-.53.35-.8.23-.51.48-1.05.76-1.59,1.99-3.99,5.03-8.67,8.12-11.92-.98-2.04-2.06-4.08-3.24-5.97-.19-.3-.38-.6-.57-.9-1.25-1.92-2.58-3.66-3.96-5.06-2.75-.57-5.91-.39-9.19.35Z"/>
        <path class="cls-2" d="m231.09,164.96c-.19,2.66-.14,5.36.16,8.06.28,2.48.78,4.97,1.52,7.44l.03.1.02-.08c.2-1.1.5-2.12.9-3.03-.56-1.23-1.01-2.57-1.35-3.97-.65-2.69-.87-5.59-.68-8.27.1-1.42.32-2.78.66-4.02.03-.09.05-.19.08-.27-.23-.35-.44-.73-.64-1.12-.33,1.7-.56,3.42-.69,5.16Z"/>
        <path class="cls-2" d="m200.65,226.82c1.03,2.44,2.1,4.94,3.21,7.45,21.86,19.36,37.53.59,49.17-25.9-3.28-1.75-6.37-3.85-9.15-6.36-5.6,12.18-11.51,19.41-20.06,28.23,5.58-11.12,9.09-19.28,14.84-33.87-.2-.26-.42-.49-.62-.75-2.6-3.46-4.76-7.35-6.34-11.61-.47-1.28-.85-2.56-1.2-3.84-2.7,11.97-5.74,24.45-10.16,35.29-3.94,9.66-8.47,15.14-19.68,11.37Z"/>
        <path class="cls-2" d="m207.9,242.82c7.39,14.38,17.19,25.91,33.32,19.63,13.46-5.24,39.9-38.94,48.6-51.23.07-.04.14-.07.21-.11-2.87,1.03-5.77,1.78-8.67,2.22-1.21.18-2.42.31-3.63.39,0,0,0,0,.01,0-10.86,16.18-24.16,28.84-39.59,38.47,11.34-11.35,21.71-23.78,29.72-38.86-3.12-.47-6.18-1.25-9.12-2.34-11.48,23.11-28.28,49.23-50.85,31.82Z"/>
        <path class="cls-2" d="m294.29,198.8c-.9.42-1.8.8-2.7,1.14-2.5.95-4.94,1.57-6.99,1.71-.41.03-.8.04-1.17.03-1.93,3.64-4.73,6.49-8.79,8.22.32.43.67.8,1.06,1.11.31.24.65.44,1.01.6l.05.02.41-.02c4.19-.26,8.4-1.12,12.53-2.65,2.11-.78,4.12-1.71,6.02-2.76,2.24-1.24,4.34-2.67,6.29-4.24,1.29-1.05,2.52-2.17,3.67-3.35.16-.56.25-1.13.27-1.71-1.82-.24-3.46-1.03-5.02-2.03-1.98,1.47-4.29,2.82-6.64,3.92Z"/>
        <path class="cls-2" d="m275.41,211.69c-.49-.36-.93-.8-1.32-1.33-.06-.09-.13-.18-.19-.27-.11.02-.22.04-.33.06-1.41.21-3.09.19-4.84,0-4.6-.51-9.7-2.22-11.71-4.19-1.02.32-2.11.47-3.22.47.84.46,1.7.89,2.57,1.29,5,2.3,10.44,3.65,16.02,3.94,1,.05,2,.06,3,.05Z"/>
        <path class="cls-2" d="m301.38,173.04c-.29-.26-.57-.51-.86-.76-1.43-1.22-2.9-2.32-4.42-3.3-.7-.45-1.41-.89-2.13-1.29l-.48.23c-.72.34-1.44.68-2.17,1.02-2.59,1.17-5.25,2.26-7.94,3.23-1.92.69-3.86,1.31-5.8,1.85-.53,2.84-1.24,5.7-2.08,8.56l-.15.5c-.7,2.34-1.48,4.69-2.31,7.05-.16.45-.32.9-.48,1.35,2.93,4.08,6.76,7.11,10.72,9.5,2.17.11,5.06-.54,8.05-1.68.68-.26,1.37-.54,2.05-.85,2.84-1.28,5.65-2.93,7.93-4.75l.21-.17c1.98-2.76,3.64-7.47,4.18-12.24.13-1.17.2-2.35.18-3.5-1.44-1.76-2.95-3.33-4.51-4.74Z"/>
        <path class="cls-2" d="m265.49,160.12c-2.83.21-5.64.59-8.45,1.1l-.27.05c-2.82.52-5.62,1.19-8.41,1.96-1.43,2.12-2.63,4.59-3.48,7.37-.7,2.27-1.17,4.76-1.37,7.43-.04.61-.07,1.23-.09,1.86,1.3,2.36,2.76,4.6,4.39,6.71.18.23.36.46.54.69,1.97,2.46,4.19,4.74,6.66,6.81,3.18.14,6.35-.06,9.51-.67,2.45-.47,4.9-1.18,7.35-2.16.17-.48.34-.96.51-1.44.83-2.35,1.61-4.7,2.31-7.05l.13-.43c.86-2.93,1.59-5.86,2.12-8.76-1.89-2.11-3.75-4.23-5.57-6.37-2-2.36-3.97-4.73-5.88-7.12Z"/>
        <g>
          <path class="cls-2" d="m13.57,255.42c1.9,3.98,1.94,4.85,2.34,8.52l1.07-3.6c.29-1.36,1.62-7.22-.62-7.94-.91-.29-2.34,2.51-2.78,3.02"/>
          <path class="cls-2" d="m497.57,254.38c-1.9,3.98-1.94,4.85-2.34,8.52l-1.07-3.6c-.29-1.36-1.62-7.22.62-7.94.91-.29,2.34,2.51,2.78,3.02"/>
          <g>
            <g>
              <path class="cls-2" d="m380.52,289.09c-1.75,2.58-3.67,5.7-5.21,8.53-1.64,3.03-1.85,6.34-7.58,6.47-1.11.03-2.22-.15-3.37-.09-.98.06-1.69.48-2.44.98-7.34,17.44-17.41,34.84-30.02,51.26h15.14c13.7-22.16,25.22-44.93,34.6-68.66-.42.53-.81,1.05-1.12,1.5Z"/>
              <path class="cls-2" d="m289.73,418.55l-33.97,31-30.76-31h-14.96c13.88,16.42,29.08,32.68,45.73,48.92,16.64-16.25,31.83-32.5,45.72-48.92h-11.75Z"/>
              <path class="cls-2" d="m105.8,174.1c2.02-1.3,3.74-4.19,5.39-5.08,1.56-.85,4.67-.63,4.78-.69l9.42-7.23c3.21-2.19,6.28-4.5,9.14.44,1.07,1.85,1.28,1.18,2.66,2.3.68.56,1.84,1.49,2.41,2.54l1.84,7.41,3.17,1.77c1.12.54,1.96,1.68,2.76,3.16,2.56,4.72,3.21,7.76-1.9,10.52,5.31,3.54,13.04,4.65,15.37,15.66.74,3.5.19,2.98.2,4.63,0,.55,1.95,4.11,2.29,5.26.58,1.97.42,2.92.44,4.71,1.36-.74,4.7-2.76,5.68-3.59,4.84-4.08,4.59-9.84,9.69-12.61,1.21-.65,2.44-1.1,3.66-1.45-5.4-14.37-9.86-28.46-13.63-45.12,7.45,15.31,13.66,30.14,20.06,44.64,4.94.89,8.18,5.78,7.6,8.41-.32,1.46-.23.98.52,2.62.82,1.8,1.15,4.31.94,6.61,14.88,9.24,16.3-3.87,21.51-21.99,3.42-11.92,6.55-23.91,9.59-35.91.53-3.42,1.44-6.75,2.71-9.94.74-1.86,1.61-3.67,2.58-5.42.29-.51.59-1.03.9-1.54,3.43-5.61,8.09-10.51,13.76-14.26,2.86-1.89,5.98-3.49,9.34-4.73,4.32-1.6,8.72-2.5,13.09-2.77,6.44-.39,12.8.59,18.7,2.78l2.75,1.13c5.78,2.58,11.03,6.36,15.34,11.14,3.76,4.18,6.81,9.12,8.88,14.71.78,2.1,1.39,4.23,1.85,6.36,1.43,6.69,1.31,13.43-.17,19.82-.13.58-.28,1.15-.43,1.73-.53,1.93-1.18,3.83-1.96,5.67-1.72,4.1-4.03,7.94-6.87,11.39-.59.71-1.22,1.39-1.86,2.07.22-.23.45-.44.66-.68-16.46,24.66-34.48,47.28-55.55,65.92-10.18,9-19.82,9.76-30.08,4.6-13.05-6.57-23.94-27.76-29.49-40.56-.26-.62-.5-1.2-.76-1.82-2.42.82-2.9-.74-4.39-1.82-1.4.92-2.55,2.47-4.16,3.34-6.64,3.6-3.16-2.95-9.14,8.37-3.39,6.41-10.53,16.4-16.63,19.7l-3.68,1.72c.48,1.75-.58,2.71-1.56,3.76-.78.83-.47,4.17-.93,5.53-.12.35-.45,1.08-.62,1.4-.35.67-.57.73-.98,1.29,1.31,1.47,2.75,1.57,3.63,3.19.87,1.6.12,3.73-1.56,4.64-2.44,1.32-5.49-.72-6.38-.44-.86.27.28,1.99.72,3.15.64,1.7,1.74,5.68,3.96,5.99,6.83.93,8.47-6.06,15.75.88,3.88,3.69,5.72,7.1,2.56,11.9-1.97,3-7.58,7.01-12.33,8.29,8.2,17.22,19.07,34.74,31.56,48.65h8.03l-.23-.23,3.43-3.43,3.43-3.43,3.43,3.43,3.43,3.43-.23.23h9.47l-2.28-2.28,3.19-3.19,3.19-3.19,3.19,3.19,3.19,3.19-2.28,2.28h13.55l-.03-.03-2.99-2.98,2.99-2.98,2.98-2.98,2.98,2.98,2.99,2.98-2.99,2.98-.03.03h9.09l-.03-.03-2.99-2.98,2.99-2.98,2.98-2.98,2.98,2.98,2.99,2.98-2.99,2.98-.03.03h13.43l-2.28-2.28,3.19-3.19,3.19-3.19,3.19,3.19,3.19,3.19-2.28,2.28h9.47l-.23-.23,3.43-3.43,3.43-3.43,3.43,3.43,3.43,3.43-.23.23h10.34c13.44-15.93,25.03-32.92,35.49-50.35-4.25-1.68-8.7-5.03-10.41-7.63-3.16-4.8-1.31-8.21,2.56-11.9,7.28-6.94,8.92.05,15.75-.88,2.22-.3,3.32-4.28,3.96-5.99.44-1.16,1.57-2.89.72-3.15-.9-.28-3.94,1.76-6.38.44-1.68-.91-2.42-3.04-1.56-4.64.88-1.62,2.32-1.72,3.63-3.19-.41-.56-.62-.63-.98-1.29-.17-.32-.5-1.05-.62-1.4-.47-1.36-.15-4.7-.93-5.53-.98-1.05-2.04-2.01-1.56-3.76l-3.68-1.72c-6.09-3.3-13.24-13.29-16.63-19.7-5.98-11.32-2.5-4.77-9.14-8.37-1.61-.87-2.76-2.42-4.16-3.34-1.75,1.27-2.09,3.21-5.8,1.2-.62-.34-2.96-3.02-3.32-3.76-1.33-2.77-1.08-7.18.17-9.91.75-1.64.84-1.16.52-2.62-.61-2.76,2.95-8.04,8.28-8.56,2.81-.28,6.22.34,9.41,2.07,5.1,2.77,4.85,8.53,9.69,12.61.99.83,4.32,2.85,5.68,3.59.02-1.79-.14-2.73.44-4.71.34-1.15,2.28-4.7,2.29-5.26,0-1.65-.54-1.13.2-4.63,2.32-11.01,10.05-12.12,15.37-15.66-5.1-2.77-4.46-5.8-1.9-10.52.8-1.48,1.63-2.62,2.76-3.16l3.17-1.77,1.84-7.41c.57-1.05,1.73-1.98,2.41-2.54,1.38-1.13,1.59-.45,2.66-2.3,2.87-4.94,5.94-2.63,9.14-.44l9.42,7.23c.11.06,3.22-.16,4.78.69,1.66.9,3.38,3.78,5.39,5.08,1.69,1.09,2.96,1.82,4.12,2.65,2.89-23.71,4.31-48.5,4.24-74.66-20.47,12.16-127.66-1.2-160.56-30.41-32.9,29.22-134.87,42.57-155.34,30.41-.07,26.42,1.38,51.44,4.32,75.36,1.04-.7,2.19-1.37,3.65-2.31Zm195.22,112.29l3.07,2.7,3.07,2.7-3.07,2.7-3.07,2.7-3.07-2.7-3.07-2.7,3.07-2.7,3.07-2.7Zm3.39,29.31l-3.07,2.73-3.07-2.73-3.07-2.72,3.07-2.73,3.07-2.73,3.07,2.73,3.07,2.73-3.07,2.72Zm3.19,4.02l3.07-3.07,3.07,3.07,3.07,3.07-3.07,3.07-3.07,3.07-3.07-3.07-3.07-3.07,3.07-3.07Zm-112.07-6.74l3.07-2.73,3.07-2.73,3.07,2.73,3.07,2.73-3.07,2.72-3.07,2.73-3.07-2.73-3.07-2.72Zm2.94,9.81l-3.07,3.07-3.07,3.07-3.07-3.07-3.07-3.07,3.07-3.07,3.07-3.07,3.07,3.07,3.07,3.07Zm8.5-19.87l3.07-2.79,3.07-2.79,3.07,2.79,3.07,2.79-3.07,2.79-3.07,2.79-3.07-2.79-3.07-2.79Zm2.3,16.38l3.47-3.2,3.47,3.2,3.47,3.2-3.47,3.2-3.47,3.2-3.47-3.2-3.47-3.2,3.47-3.2Zm7.93-5.96l3.33-3.33,3.33-3.33,3.33,3.33,3.33,3.33-3.33,3.33-3.33,3.33-3.33-3.33-3.33-3.33Zm11.35-10.99l3.07-2.75,3.07-2.75,3.07,2.75,3.07,2.75-3.07,2.75-3.07,2.75-3.07-2.75-3.07-2.75Zm2.98,17.66l3.29-2.98,3.29,2.98,3.29,2.98-3.29,2.98-3.29,2.98-3.29-2.98-3.29-2.98,3.29-2.98Zm9.05-4.38l-3.11-3.11,3.11-3.11,3.11-3.11,3.11,3.11,3.11,3.11-3.11,3.11-3.11,3.11-3.11-3.11Zm7.35,4.33l3.15-3.15,3.15,3.15,3.15,3.15-3.15,3.15-3.15,3.15-3.15-3.15-3.15-3.15,3.15-3.15Zm8.32-4.33l-3.11-3.11,3.11-3.11,3.11-3.11,3.11,3.11,3.11,3.11-3.11,3.11-3.11,3.11-3.11-3.11Zm5.92-13.28l3.07-2.75,3.07-2.75,3.07,2.75,3.07,2.75-3.07,2.75-3.07,2.75-3.07-2.75-3.07-2.75Zm2.7,17.66l3.29-2.98,3.29,2.98,3.29,2.98-3.29,2.98-3.29,2.98-3.29-2.98-3.29-2.98,3.29-2.98Zm7.59-6.66l3.33-3.33,3.33-3.33,3.33,3.33,3.33,3.33-3.33,3.33-3.33,3.33-3.33-3.33-3.33-3.33Zm11.29-10.42l3.07-2.79,3.07-2.79,3.07,2.79,3.07,2.79-3.07,2.79-3.07,2.79-3.07-2.79-3.07-2.79Zm3.02,16.38l3.47-3.2,3.47,3.2,3.47,3.2-3.47,3.2-3.47,3.2-3.47-3.2-3.47-3.2,3.47-3.2Zm-.76-41.28l3.07-2.82,3.07,2.82,3.07,2.82-3.07,2.82-3.07,2.82-3.07-2.82-3.07-2.82,3.07-2.82Zm-7.08,9.11l3.07,2.54,3.07,2.54-3.07,2.54-3.07,2.54-3.07-2.54-3.07-2.54,3.07-2.54,3.07-2.54Zm-13.36-8.58l3.07-2.79,3.07,2.79,3.07,2.79-3.07,2.79-3.07,2.79-3.07-2.79-3.07-2.79,3.07-2.79Zm-10.55,10.55l3.07-2.46,3.07,2.46,3.07,2.45-3.07,2.45-3.07,2.46-3.07-2.46-3.07-2.45,3.07-2.45Zm-.8,8.65l3.15,3.15-3.15,3.15-3.15,3.15-3.15-3.15-3.15-3.15,3.15-3.15,3.15-3.15,3.15,3.15Zm-9.33-11.1l3.07,2.46,3.07,2.45-3.07,2.45-3.07,2.46-3.07-2.46-3.07-2.45,3.07-2.45,3.07-2.46Zm-13.61-8.09l3.07-2.79,3.07,2.79,3.07,2.79-3.07,2.79-3.07,2.79-3.07-2.79-3.07-2.79,3.07-2.79Zm-7.23,8.58l3.07,2.54,3.07,2.54-3.07,2.54-3.07,2.54-3.07-2.54-3.07-2.54,3.07-2.54,3.07-2.54Zm-13.21-9.11l3.07-2.82,3.07,2.82,3.07,2.82-3.07,2.82-3.07,2.82-3.07-2.82-3.07-2.82,3.07-2.82Zm-11.93,11.08l3.07-2.7,3.07,2.7,3.07,2.7-3.07,2.7-3.07,2.7-3.07-2.7-3.07-2.7,3.07-2.7Zm-10.63,11.44l3.07-2.7,3.07,2.7,3.07,2.7-3.07,2.7-3.07,2.7-3.07-2.7-3.07-2.7,3.07-2.7Zm-9.65,9.45l3.07-3.07,3.07,3.07,3.07,3.07-3.07,3.07-3.07,3.07-3.07-3.07-3.07-3.07,3.07-3.07Zm-8.45,16.76l-3.64-3.07,3.64-3.07,3.64-3.07,3.64,3.07,3.64,3.07-3.64,3.07-3.64,3.07-3.64-3.07Zm9.43,10.14l-3.07-3.07,3.07-3.07,3.07-3.07,3.07,3.07,3.07,3.07-3.07,3.07-3.07,3.07-3.07-3.07Zm15.88,9.36l-3.43,3.07-3.43-3.07-3.43-3.07,3.43-3.07,3.43-3.07,3.43,3.07,3.43,3.07-3.43,3.07Zm7.28-6.91l-3.43-3.43-3.43-3.43,3.43-3.43,3.43-3.43,3.43,3.43,3.43,3.43-3.43,3.43-3.43,3.43Zm13.78,7.42l-3.88,3.26-3.88-3.26-3.88-3.26,3.88-3.26,3.88-3.26,3.88,3.26,3.88,3.26-3.88,3.26Zm7.57-6.36l-3.35-3.35-3.35-3.35,3.35-3.35,3.35-3.35,3.35,3.35,3.35,3.35-3.35,3.35-3.35,3.35Zm14.64,7.61l-3.2,3.2-3.19-3.2-3.2-3.19,3.2-3.19,3.19-3.2,3.2,3.2,3.2,3.19-3.2,3.19Zm4.26-8.42l-3.15-3.15-3.15-3.15,3.15-3.15,3.15-3.15,3.15,3.15,3.15,3.15-3.15,3.15-3.15,3.15Zm11.21,7.38l-3.15,3.15-3.15-3.15-3.15-3.15,3.15-3.15,3.15-3.15,3.15,3.15,3.15,3.15-3.15,3.15Zm2.59-10.53l-3.15-3.15,3.15-3.15,3.15-3.15,3.15,3.15,3.15,3.15-3.15,3.15-3.15,3.15-3.15-3.15Zm13.8,11.57l-3.19,3.2-3.19-3.2-3.2-3.19,3.2-3.19,3.19-3.2,3.19,3.2,3.2,3.19-3.2,3.19Zm8.25-7.61l-3.35-3.35-3.35-3.35,3.35-3.35,3.35-3.35,3.35,3.35,3.35,3.35-3.35,3.35-3.35,3.35Zm15.32,6.36l-3.88,3.26-3.88-3.26-3.88-3.26,3.88-3.26,3.88-3.26,3.88,3.26,3.88,3.26-3.88,3.26Zm6.02-7.42l-3.43-3.43-3.43-3.43,3.43-3.43,3.43-3.43,3.43,3.43,3.43,3.43-3.43,3.43-3.43,3.43Zm14.14,6.91l-3.43,3.07-3.43-3.07-3.43-3.07,3.43-3.07,3.43-3.07,3.43,3.07,3.43,3.07-3.43,3.07Zm9.02-9.36l-3.07,3.07-3.07-3.07-3.07-3.07,3.07-3.07,3.07-3.07,3.07,3.07,3.07,3.07-3.07,3.07Zm10.55-16.27l3.64,3.07-3.64,3.07-3.64,3.07-3.64-3.07-3.64-3.07,3.64-3.07,3.64-3.07,3.64,3.07Zm-12.63-13.7l3.07,3.07,3.07,3.07-3.07,3.07-3.07,3.07-3.07-3.07-3.07-3.07,3.07-3.07,3.07-3.07Zm-6.58-6.38l3.07,2.7-3.07,2.7-3.07,2.7-3.07-2.7-3.07-2.7,3.07-2.7,3.07-2.7,3.07,2.7Z"/>
              <polygon class="cls-2" points="255.82 431.03 270.97 418.55 241.77 418.55 255.82 431.03"/>
              <path class="cls-2" d="m148.72,305.72c-.58-.35-1.17-.63-1.93-.68-1.15-.07-2.26.11-3.37.09-5.74-.13-5.94-3.44-7.58-6.47-1.34-2.47-2.96-5.1-4.52-7.46,9.11,22.44,20.17,44.01,33.18,65.04h11.06c-12.46-14.29-21.42-32.89-26.84-50.53Z"/>
            </g>
            <path class="cls-2" d="m86.78,197.25c1.36-.55,2.55-1.16,3.85-.82-.21.46-1.96,2.27-2.54,3.38-1.61,3.1-2.47,9.05-1.71,12.54.87-1.22,1.35-2.2,2.56-3.48,1.26-1.33,2.14-2.05,3.08-3.52.75,2.72-3.45,7.48-1.8,11.66.17-.28,1.93-4.82,2.75-3.17.65,1.31-.52,3.49-.09,4.82.3.91,2.26,1.39,1.31,5.14-.78,3.08-2.02,7.13-1.33,10.53,1.86-1.7,5.38-5.68,9.24-5.02-6.33,3.55-9.09,6.77-11.64,13.1l-2.92,7.41c-1.05,2.58-1.5,4.98-2.9,7.58-5.01,9.3-11.83,10.1-19.38,16.42-10.42,8.72-8.13,12.45-15.39,17.58-4.04,2.86-8.16,3.93-12.44,4.35-2.96.29-7.18-2.37-9.59-5.08-3.02-3.4-4.5-7.76-5.25-11.94-.7-3.88-.9-7.75-.55-11.25.19-1.91.4-3.54.94-5.35.45-1.51,1.06-3.61,1.29-5.25,1.07-7.6-8.24-17.19-14.8-6.16-1.07,1.81-1.41,3.11-3.17,4.51-6.32,5.04-5.35,7.32-6.31,14.84.1-.78,1.61-3.96,2.74-4.87l-1.08,3.61c-.72,3.89.18,6.02-1.6,11.42,1.9-.11,6.45-5.78,8.18-7.07l-.14,1.27c1.04-.9,3.15-4.14,3.69-5.25,1.28-2.63,1.79-2.81,1.87-5.95.08-3.02-1.23-4.34-2.2-7.16-.41-1.2.51-2.15,1.12-3.02,3.56-5.13,6.59-2.83,7.28,1.46.72,4.49-2.7,8.89-2.55,18.95.13,9.12,1.87,19.93,11.11,25.43,9.06,5.39,16.84,3.67,26.48-.25.78,3.01-.58,16.33-1.66,19.11-1.93,4.98-5.44,8.1-9.63,11.93-.94.86-1.23.95-1.04,2.14.15.9.61,2.07,1.01,2.97,1.94,4.42,10,19.33,13.78,19.5,1.56.07,2.4-.92,5.06-.45,1.81.32,2.35,1,4.83.31,1.39-.39,4.29-1.79,5.15-2.89l1.62-1.98c.7-.73,1.21-1.56,1.62-2.15l-.42-1.56c-.28-1.38-3.26-3.32-4.8-3.87-4.99-1.79-9.55,8.78-15-1.92-3.34-6.56,5.38-9.56,10.53-12.34,2.85-1.54,5.23-3.49,7.37-5.65,1.95-1.97,3.67-4.11,5.16-6.21.98-1.38,3.54-5.91,4.2-6.51,2.24-2.03,10.32,1.38,8.37,10.25-.29,1.31-.75,2.48,1.1,3.74,1.29.88,2.16,1.02,3.51,1.22,2.44.37,4.94.4,7.66.28,2.69-.12,5.25-.28,8.11-1.17,3.68-1.15,4.7.86,7.46.92,1.38.03,2.8-.39,4.17-1.14,2.8-1.53,2.39-1.54,2.88-2.98.45-1.35,2.39-1.41,3.29-2.91.45-.75,2.41-2.21,2.35-3.29-.68-1.8-4.91-3.7-5.98-3.98-5.72-1.49-8.99,5.67-14.74,5.76-1.21.02-2.62-.01-3.66-.12-1.38-.14-2.4-.05-3.23-1.72,3.78-7.19,8.51-14.68,4.45-23.21-1.83-3.84-3.53-5.35-5.77-8.34,2.59,1.7,4.86,4.99,6.75,8.03,2.76-1.46,5.91-3.89,8.29-5.79,2.3-1.84,5.23-4.75,7.43-6.24,3.31,3.4,5.57,5.57,8.5,9.85,1.24,1.81,7.18,12.52,7.65,12.84,1.13.75,3.73.33,5.52.37,4.84.1,4.89,4.57,10.77,2.25,1.96-.77,5.08-2.49,6.55-3.85,4.18-3.9,4.5-5.75.05-10.04-4.48-4.32-5.72.26-11.54.35-5.54.09-6.63-2.67-8.8-8.16-.8-2.04-1.48-4.13-2.08-6.22-.38-1.34-1.64-4.96-1.28-6.39,1.89,2.77,2.71,3.15,5.09,4.35l-1.83-2.44c2.49,1.31,3.91,3.35,6.93,3.29-2.13-1.42-3.43-2.68-4.03-5.82-.32-1.67-.54-4.78.34-6.37,1.16,1.57,1.2,2.52,1.65,4.17,1.06-2.46.82-6.05-.31-9.26,1.21.7,1.53,1.4,2.79,1.3-1.23-1.63-1.56-3.34-1.3-4.89,2.81,1.28,3.76,1.31,6.79-.43,5.54-3.19,10.96-10.89,14-15.95,1.77-2.94,4.17-9.69,7.37-11.2,2.4-1.13,3.03.73,6.85-2.89,3.47-3.29,3.24-1.85,6.55-1.36l.56,1.35c1.58-1.2.68-2.46,1.04-4.29l1.31,1.83c.59-1.19.37-2.48.55-3.36.11-.54.15-.13.05-.86-.57-4.41-2.63-5.3-4.42-7.65,1.23-.7,1.93-.38,2.8-.27-1.82-4.31-5.88-4.6-9.77-3.41-4.8,1.47-6.06,5.07-7.45,8.19-3.17,7.11-14.18,9.39-18.85,15.75-3.59-4.46-5.01-6.16-9.58-8.58-3.68-1.95-7.05-2.9-10.87-4.08,3.55-.06,7.79,1.29,10.69,2.32,6.4,2.26,6.97,4.46,9.58,6.15.48-2.24-1.73-8.26-2.88-10.87,1.16.23,2.48,1.17,3.52,2.31,1.72,1.91,1.45,2.93,1.89,4.92,1.8-2.29.15-7.41-2.12-10.07-1.99-2.34-5.81-6.5-6.92-9.48,3.46,1.36,4.44,3.11,7.2,6.23-.41-6.26-4.14-10.92-8.97-13.07-14.41-6.41-4.13-8.49-3.22-10.06.26-.46.13-1.33-.14-2.05-1.79-4.76-1.97-3.15-3.5-4.54-.34-.31-.56-.62-.81-.87-.28,1.94.7,1.66-.96,3.66-3.03,3.67-3.19,4.7-6.98-3.9-.84-1.91.51-3.97,1.93-5.34.86.55,1.87,1.8,2.8,2.26-.28-1.53-.53-2.01-1.09-3.51-.62-1.65.67-1.67-.94-3.3-1.72-1.74-3-1.17-4.05-3.21-.41-.8-.55-1.21-1.12-1.94-2.2.53-10.49,7.23-12.33,8.96-1.69,1.58-1.38.94-3.04.73-3.45-.45-4.84,3.92-8.59,5.83-2.45,1.24-4.06,2.74-5.68,4.66-1.51,1.78-2.18,4.07-3.98,5.33-3.06,2.13-7.2,3.28-9.11,6.8l-1.12,2.77Z"/>
            <path class="cls-2" d="m424.36,196.21c-1.36-.55-2.55-1.16-3.85-.82.21.46,1.96,2.27,2.54,3.38,1.61,3.1,2.47,9.05,1.71,12.54-.87-1.22-1.35-2.2-2.56-3.48-1.26-1.33-2.14-2.05-3.08-3.52-.75,2.72,3.45,7.48,1.8,11.66-.17-.28-1.93-4.82-2.75-3.17-.65,1.31.52,3.49.09,4.82-.3.91-2.26,1.39-1.31,5.14.78,3.08,2.02,7.13,1.33,10.53-1.86-1.7-5.38-5.68-9.24-5.02,6.33,3.55,9.09,6.77,11.64,13.1l2.92,7.41c1.05,2.57,1.5,4.98,2.9,7.58,5.01,9.3,11.83,10.1,19.38,16.42,10.42,8.72,8.13,12.45,15.39,17.58,4.04,2.86,8.16,3.93,12.44,4.35,2.96.29,7.18-2.37,9.59-5.08,3.02-3.4,4.5-7.76,5.25-11.94.7-3.88.9-7.75.55-11.25-.19-1.91-.4-3.54-.94-5.35-.45-1.51-1.06-3.61-1.29-5.25-1.07-7.6,8.24-17.19,14.8-6.16,1.07,1.81,1.41,3.11,3.17,4.51,6.32,5.04,5.35,7.32,6.31,14.84-.1-.78-1.61-3.96-2.74-4.87l1.08,3.61c.72,3.89-.18,6.02,1.6,11.42-1.9-.11-6.45-5.78-8.18-7.07l.14,1.27c-1.04-.9-3.15-4.14-3.69-5.25-1.28-2.63-1.79-2.81-1.87-5.95-.08-3.02,1.23-4.34,2.2-7.16.41-1.2-.51-2.15-1.12-3.02-3.56-5.13-6.59-2.83-7.28,1.46-.72,4.49,2.7,8.89,2.55,18.95-.13,9.12-1.87,19.93-11.11,25.43-9.06,5.39-16.84,3.67-26.48-.25-.78,3.01.58,16.33,1.66,19.11,1.93,4.98,5.44,8.1,9.63,11.93.94.86,1.23.95,1.04,2.14-.15.9-.61,2.07-1.01,2.97-1.94,4.42-10,19.33-13.78,19.5-1.56.07-2.4-.92-5.06-.45-1.81.32-2.35,1-4.83.31-1.39-.39-4.29-1.79-5.15-2.89l-1.62-1.98c-.7-.73-1.21-1.56-1.62-2.15l.42-1.56c.28-1.38,3.26-3.32,4.8-3.87,4.99-1.79,9.55,8.78,15-1.92,3.34-6.56-5.38-9.56-10.53-12.34-2.85-1.54-5.23-3.49-7.37-5.65-1.95-1.97-3.67-4.11-5.16-6.22-.98-1.38-3.54-5.91-4.21-6.51-2.24-2.03-10.32,1.38-8.37,10.25.29,1.31.75,2.47-1.1,3.74-1.29.88-2.16,1.02-3.51,1.22-2.44.37-4.94.4-7.66.28-2.69-.12-5.25-.28-8.11-1.17-3.68-1.15-4.7.86-7.46.92-1.38.03-2.8-.39-4.17-1.14-2.8-1.53-2.39-1.54-2.88-2.98-.45-1.35-2.39-1.41-3.29-2.91-.45-.75-2.41-2.21-2.35-3.29.68-1.8,4.91-3.7,5.98-3.98,5.72-1.49,8.99,5.67,14.74,5.76,1.21.02,2.62,0,3.66-.12,1.38-.14,2.4-.05,3.23-1.72-3.78-7.19-8.51-14.68-4.45-23.21,1.83-3.84,3.53-5.35,5.77-8.34-2.59,1.7-4.86,4.99-6.75,8.03-2.76-1.46-5.91-3.89-8.29-5.79-2.3-1.84-5.23-4.75-7.43-6.24-3.31,3.4-5.57,5.57-8.5,9.85-1.24,1.81-7.18,12.52-7.65,12.84-1.13.75-3.73.33-5.52.37-4.84.1-4.89,4.57-10.77,2.25-1.96-.77-5.08-2.49-6.55-3.85-4.18-3.9-4.5-5.75-.05-10.04,4.48-4.32,5.72.26,11.54.35,5.54.09,6.63-2.67,8.8-8.16.8-2.04,1.48-4.13,2.08-6.22.38-1.34,1.64-4.96,1.28-6.39-1.89,2.77-2.71,3.15-5.09,4.35l1.83-2.44c-2.49,1.31-3.91,3.35-6.93,3.29,2.13-1.42,3.43-2.68,4.03-5.82.32-1.67.54-4.78-.34-6.37-1.16,1.57-1.2,2.52-1.65,4.17-1.06-2.46-.82-6.05.31-9.26-1.21.7-1.53,1.4-2.79,1.3,1.23-1.63,1.56-3.34,1.3-4.89-2.81,1.28-3.76,1.32-6.79-.43-5.54-3.19-10.96-10.89-14-15.95-1.77-2.94-4.17-9.69-7.37-11.2-2.4-1.13-3.03.73-6.85-2.89-3.47-3.29-3.24-1.85-6.55-1.36l-.56,1.35c-1.58-1.2-.68-2.46-1.04-4.29l-1.31,1.83c-.59-1.19-.37-2.48-.55-3.36-.11-.54-.15-.13-.05-.86.57-4.41,2.63-5.3,4.42-7.65-1.23-.7-1.93-.38-2.8-.27,1.82-4.31,5.88-4.6,9.77-3.41,4.8,1.47,6.06,5.07,7.45,8.19,3.17,7.11,14.18,9.39,18.85,15.75,3.59-4.46,5.01-6.16,9.58-8.58,3.68-1.95,7.05-2.9,10.87-4.08-3.55-.06-7.79,1.29-10.69,2.32-6.4,2.26-6.97,4.46-9.58,6.15-.48-2.24,1.73-8.26,2.88-10.87-1.16.23-2.48,1.17-3.52,2.31-1.72,1.91-1.45,2.93-1.89,4.91-1.8-2.29-.15-7.41,2.12-10.07,1.99-2.34,5.81-6.5,6.92-9.48-3.46,1.36-4.44,3.12-7.2,6.23.41-6.26,4.14-10.92,8.97-13.07,14.41-6.41,4.13-8.49,3.22-10.06-.26-.46-.13-1.33.14-2.05,1.79-4.76,1.97-3.15,3.5-4.54.34-.31.56-.62.81-.87.28,1.94-.7,1.66.96,3.66,3.03,3.67,3.19,4.7,6.98-3.9.84-1.91-.51-3.97-1.93-5.34-.86.55-1.87,1.8-2.8,2.26.28-1.53.53-2.01,1.09-3.51.62-1.65-.67-1.67.94-3.3,1.72-1.74,3-1.17,4.05-3.21.41-.8.55-1.21,1.12-1.94,2.2.53,10.49,7.23,12.33,8.96,1.69,1.58,1.38.94,3.04.73,3.45-.45,4.84,3.92,8.59,5.83,2.45,1.24,4.06,2.74,5.68,4.66,1.51,1.78,2.18,4.07,3.98,5.33,3.06,2.13,7.2,3.28,9.11,6.8l1.12,2.77Z"/>
            <g>
              <path class="cls-1" d="m82.58,360.18v53.33h-7.81v-36s-3.12,36-3.12,36h-5.54l-3.28-35.18v35.18h-7.82v-53.33h11.56c.34,3.21.7,6.99,1.06,11.34l1.27,13.56,2.05-24.9h11.62Z"/>
              <path class="cls-1" d="m106.58,391.4c0,5.36-.08,9.15-.24,11.38-.16,2.23-.67,4.26-1.53,6.11-.86,1.85-2.01,3.26-3.47,4.25s-3.15,1.48-5.09,1.48c-1.84,0-3.49-.47-4.96-1.4-1.46-.93-2.64-2.33-3.53-4.2-.89-1.87-1.42-3.9-1.59-6.09s-.26-6.04-.26-11.53v-9.12c0-5.36.08-9.15.25-11.38.16-2.23.67-4.27,1.53-6.11.86-1.85,2.01-3.26,3.47-4.25,1.46-.99,3.15-1.48,5.09-1.48,1.84,0,3.49.47,4.96,1.4,1.46.93,2.64,2.34,3.53,4.2.89,1.87,1.42,3.9,1.59,6.09.17,2.19.25,6.04.25,11.53v9.12Zm-8.93-17.52c0-2.48-.09-4.07-.27-4.76-.18-.69-.54-1.04-1.09-1.04-.47,0-.82.28-1.07.84-.25.56-.37,2.21-.37,4.96v24.9c0,3.1.08,5,.25,5.73.16.72.54,1.09,1.13,1.09s1-.42,1.17-1.25.25-2.82.25-5.96v-24.51Z"/>
              <path class="cls-1" d="m130.22,360.18v35.64c0,4.04-.08,6.88-.25,8.51-.17,1.64-.67,3.32-1.51,5.04-.83,1.73-1.93,3.03-3.3,3.92-1.37.89-2.97,1.33-4.83,1.33-2.05,0-3.86-.53-5.43-1.58-1.57-1.05-2.74-2.42-3.52-4.12s-1.24-3.48-1.38-5.35c-.14-1.88-.21-5.83-.21-11.84v-31.55h8.93v39.99c0,2.33.08,3.82.24,4.46.16.65.49.97.99.97.57,0,.93-.35,1.09-1.07.16-.71.24-2.4.24-5.06v-39.3h8.93Z"/>
              <path class="cls-1" d="m133.68,360.18h6.32c4.22,0,7.07.25,8.56.76,1.49.51,2.71,1.8,3.65,3.87.94,2.07,1.41,5.39,1.41,9.93,0,4.15-.33,6.94-1,8.37-.66,1.43-1.97,2.28-3.93,2.57,1.77.68,2.96,1.59,3.57,2.73.61,1.14.99,2.19,1.14,3.14.15.96.22,3.59.22,7.89v14.06h-8.3v-17.72c0-2.85-.14-4.62-.44-5.3-.29-.68-1.05-1.02-2.28-1.02v24.05h-8.93v-53.33Zm8.93,9.12v11.86c1,0,1.71-.21,2.11-.64.4-.43.6-1.82.6-4.17v-2.93c0-1.69-.19-2.8-.58-3.33-.39-.53-1.1-.79-2.13-.79Z"/>
              <path class="cls-1" d="m157.08,360.18h14.9v10.67h-5.96v10.11h5.58v10.14h-5.58v11.73h6.56v10.67h-15.49v-53.33Z"/>
              <path class="cls-1" d="m182.8,360.18h9c2.43,0,4.3.3,5.61.89,1.31.59,2.29,1.45,2.95,2.57.66,1.12,1.1,2.48,1.34,4.07s.35,4.06.35,7.39v4.64c0,3.4-.23,5.89-.68,7.44-.45,1.56-1.29,2.76-2.49,3.59-1.21.83-2.79,1.25-4.74,1.25h-2.4v21.48h-8.93v-53.33Zm8.93,9.12v13.57c.25.02.47.03.66.03.82,0,1.39-.31,1.71-.94.32-.63.48-1.93.48-3.9v-4.38c0-1.82-.18-3.01-.55-3.56-.37-.55-1.13-.82-2.29-.82Z"/>
              <path class="cls-1" d="m204.62,360.18h6.32c4.22,0,7.07.25,8.56.76,1.49.51,2.71,1.8,3.65,3.87.94,2.07,1.41,5.39,1.41,9.93,0,4.15-.33,6.94-1,8.37s-1.97,2.28-3.93,2.57c1.77.68,2.96,1.59,3.57,2.73.61,1.14.99,2.19,1.14,3.14.15.96.22,3.59.22,7.89v14.06h-8.3v-17.72c0-2.85-.14-4.62-.44-5.3-.29-.68-1.05-1.02-2.28-1.02v24.05h-8.93v-53.33Zm8.93,9.12v11.86c1,0,1.71-.21,2.11-.64.4-.43.6-1.82.6-4.17v-2.93c0-1.69-.19-2.8-.58-3.33-.39-.53-1.1-.79-2.13-.79Z"/>
              <path class="cls-1" d="m228.02,360.18h14.9v10.67h-5.96v10.11h5.58v10.14h-5.58v11.73h6.56v10.67h-15.49v-53.33Z"/>
              <path class="cls-1" d="m273.64,360.18v53.33h-7.81v-36s-3.12,36-3.12,36h-5.54l-3.28-35.18v35.18h-7.82v-53.33h11.56c.34,3.21.69,6.99,1.06,11.34l1.27,13.56,2.05-24.9h11.62Z"/>
              <path class="cls-1" d="m286.16,360.18v53.33h-8.94v-53.33h8.94Z"/>
              <path class="cls-1" d="m289.75,360.18h14.9v10.67h-5.96v10.11h5.58v10.14h-5.58v11.73h6.56v10.67h-15.49v-53.33Z"/>
              <path class="cls-1" d="m307.81,360.18h6.32c4.22,0,7.07.25,8.56.76,1.49.51,2.71,1.8,3.65,3.87.94,2.07,1.41,5.39,1.41,9.93,0,4.15-.33,6.94-1,8.37-.66,1.43-1.97,2.28-3.93,2.57,1.77.68,2.96,1.59,3.57,2.73.61,1.14.99,2.19,1.14,3.14.15.96.22,3.59.22,7.89v14.06h-8.3v-17.72c0-2.85-.15-4.62-.43-5.3-.29-.68-1.05-1.02-2.28-1.02v24.05h-8.94v-53.33Zm8.94,9.12v11.86c1,0,1.71-.21,2.11-.64.4-.43.6-1.82.6-4.17v-2.93c0-1.69-.19-2.8-.58-3.33-.39-.53-1.1-.79-2.13-.79Z"/>
              <path class="cls-1" d="m347.81,360.18v42.66h5.43v10.67h-14.37v-53.33h8.94Z"/>
              <path class="cls-1" d="m355.41,360.18h14.9v10.67h-5.96v10.11h5.58v10.14h-5.58v11.73h6.56v10.67h-15.49v-53.33Z"/>
              <path class="cls-1" d="m388.91,360.18l5.11,53.33h-9.13l-.48-9.59h-3.2l-.54,9.59h-9.24l4.56-53.33h12.91Zm-4.73,34.29c-.45-6.04-.91-13.51-1.36-22.4-.91,10.21-1.48,17.68-1.72,22.4h3.08Z"/>
              <path class="cls-1" d="m416.03,379.81h-8.93v-4.84c0-3.05-.08-4.96-.26-5.73-.17-.77-.57-1.15-1.21-1.15-.55,0-.93.33-1.12.99-.2.66-.3,2.35-.3,5.07v25.6c0,2.39.1,3.97.3,4.73.2.76.59,1.14,1.19,1.14.65,0,1.09-.43,1.33-1.28.23-.86.35-2.52.35-5.01v-6.32h-1.8v-8.1h10.46v28.63h-5.61l-.83-3.82c-.61,1.65-1.38,2.88-2.3,3.71-.93.82-2.02,1.24-3.28,1.24-1.5,0-2.91-.57-4.22-1.7-1.31-1.13-2.3-2.53-2.98-4.2-.68-1.67-1.11-3.42-1.28-5.25-.17-1.84-.25-4.58-.25-8.25v-15.85c0-5.09.18-8.79.53-11.1.35-2.31,1.37-4.42,3.04-6.34,1.68-1.92,3.84-2.88,6.5-2.88s4.79.83,6.52,2.5c1.73,1.67,2.85,3.65,3.37,5.94.52,2.3.78,5.63.78,10v2.3Z"/>
              <path class="cls-1" d="m439.8,360.18v35.64c0,4.04-.09,6.88-.26,8.51-.17,1.64-.67,3.32-1.51,5.04-.83,1.73-1.93,3.03-3.3,3.92-1.37.89-2.98,1.33-4.83,1.33-2.05,0-3.86-.53-5.43-1.58-1.57-1.05-2.74-2.42-3.52-4.12-.78-1.69-1.24-3.48-1.38-5.35-.14-1.88-.21-5.83-.21-11.84v-31.55h8.93v39.99c0,2.33.08,3.82.25,4.46.16.65.49.97.99.97.57,0,.93-.35,1.09-1.07.16-.71.25-2.4.25-5.06v-39.3h8.94Z"/>
              <path class="cls-1" d="m443.26,360.18h14.9v10.67h-5.96v10.11h5.58v10.14h-5.58v11.73h6.56v10.67h-15.49v-53.33Z"/>
            </g>
          </g>
        </g>
      </g>
    </g>
  </g>
</svg>